<?xml version="1.0" encoding="utf-8" standalone="no"?>
<!DOCTYPE svg PUBLIC "-//W3C//DTD SVG 1.1//EN"
  "http://www.w3.org/Graphics/SVG/1.1/DTD/svg11.dtd">
<svg xmlns:xlink="http://www.w3.org/1999/xlink" width="413.362097pt" height="252.36pt" viewBox="0 0 413.362097 252.36" xmlns="http://www.w3.org/2000/svg" version="1.1">
 <metadata>
  <rdf:RDF xmlns:dc="http://purl.org/dc/elements/1.1/" xmlns:cc="http://creativecommons.org/ns#" xmlns:rdf="http://www.w3.org/1999/02/22-rdf-syntax-ns#">
   <cc:Work>
    <dc:type rdf:resource="http://purl.org/dc/dcmitype/StillImage"/>
    <dc:date>2026-06-02T14:42:14.979316</dc:date>
    <dc:format>image/svg+xml</dc:format>
    <dc:creator>
     <cc:Agent>
      <dc:title>Matplotlib v3.10.8, https://matplotlib.org/</dc:title>
     </cc:Agent>
    </dc:creator>
   </cc:Work>
  </rdf:RDF>
 </metadata>
 <defs>
  <style type="text/css">*{stroke-linejoin: round; stroke-linecap: butt}</style>
 </defs>
 <g id="figure_1">
  <g id="patch_1">
   <path d="M 0 252.36 
L 413.362097 252.36 
L 413.362097 0 
L 0 0 
z
" style="fill: #ffffff"/>
  </g>
  <g id="axes_1">
   <g id="patch_2">
    <path d="M 18.31392 107.71848 
L 68.93568 107.71848 
Q 72.14976 107.71848 72.14976 105.72264 
L 72.14976 81.77256 
Q 72.14976 79.77672 68.93568 79.77672 
L 18.31392 79.77672 
Q 15.09984 79.77672 15.09984 81.77256 
L 15.09984 105.72264 
Q 15.09984 107.71848 18.31392 107.71848 
z
" clip-path="url(#pff4934c5f3)" style="fill: #ffffff; stroke: #d9d9d9; stroke-width: 0.8; stroke-linejoin: miter"/>
   </g>
   <g id="patch_3">
    <path d="M 90.63072 78.27984 
L 161.34048 78.27984 
Q 164.55456 78.27984 164.55456 76.284 
L 164.55456 66.3048 
Q 164.55456 64.30896 161.34048 64.30896 
L 90.63072 64.30896 
Q 87.41664 64.30896 87.41664 66.3048 
L 87.41664 76.284 
Q 87.41664 78.27984 90.63072 78.27984 
z
" clip-path="url(#pff4934c5f3)" style="fill: #f4f8ff; stroke: #0b3f99; stroke-linejoin: miter"/>
   </g>
   <g id="patch_4">
    <path d="M 90.63072 93.24864 
L 161.34048 93.24864 
Q 164.55456 93.24864 164.55456 91.2528 
L 164.55456 81.2736 
Q 164.55456 79.27776 161.34048 79.27776 
L 90.63072 79.27776 
Q 87.41664 79.27776 87.41664 81.2736 
L 87.41664 91.2528 
Q 87.41664 93.24864 90.63072 93.24864 
z
" clip-path="url(#pff4934c5f3)" style="fill: #f4f8ff; stroke: #0b3f99; stroke-linejoin: miter"/>
   </g>
   <g id="patch_5">
    <path d="M 90.63072 108.21744 
L 161.34048 108.21744 
Q 164.55456 108.21744 164.55456 106.2216 
L 164.55456 96.2424 
Q 164.55456 94.24656 161.34048 94.24656 
L 90.63072 94.24656 
Q 87.41664 94.24656 87.41664 96.2424 
L 87.41664 106.2216 
Q 87.41664 108.21744 90.63072 108.21744 
z
" clip-path="url(#pff4934c5f3)" style="fill: #f4f8ff; stroke: #0b3f99; stroke-linejoin: miter"/>
   </g>
   <g id="patch_6">
    <path d="M 90.63072 123.18624 
L 161.34048 123.18624 
Q 164.55456 123.18624 164.55456 121.1904 
L 164.55456 111.2112 
Q 164.55456 109.21536 161.34048 109.21536 
L 90.63072 109.21536 
Q 87.41664 109.21536 87.41664 111.2112 
L 87.41664 121.1904 
Q 87.41664 123.18624 90.63072 123.18624 
z
" clip-path="url(#pff4934c5f3)" style="fill: #f4f8ff; stroke: #0b3f99; stroke-linejoin: miter"/>
   </g>
   <g id="patch_7">
    <path d="M 90.63072 138.15504 
L 161.34048 138.15504 
Q 164.55456 138.15504 164.55456 136.1592 
L 164.55456 126.18 
Q 164.55456 124.18416 161.34048 124.18416 
L 90.63072 124.18416 
Q 87.41664 124.18416 87.41664 126.18 
L 87.41664 136.1592 
Q 87.41664 138.15504 90.63072 138.15504 
z
" clip-path="url(#pff4934c5f3)" style="fill: #f4f8ff; stroke: #0b3f99; stroke-linejoin: miter"/>
   </g>
   <g id="patch_8">
    <path d="M 203.12352 147.63528 
L 293.92128 147.63528 
Q 297.13536 147.63528 297.13536 145.63944 
L 297.13536 54.32976 
Q 297.13536 52.33392 293.92128 52.33392 
L 203.12352 52.33392 
Q 199.90944 52.33392 199.90944 54.32976 
L 199.90944 145.63944 
Q 199.90944 147.63528 203.12352 147.63528 
z
" clip-path="url(#pff4934c5f3)" style="fill: #f2fbfa; stroke: #087a74; stroke-width: 1.2; stroke-linejoin: miter"/>
   </g>
   <g id="patch_9">
    <path d="M 319.63392 122.68728 
L 358.20288 122.68728 
Q 361.41696 122.68728 361.41696 120.69144 
L 361.41696 81.77256 
Q 361.41696 79.77672 358.20288 79.77672 
L 319.63392 79.77672 
Q 316.41984 79.77672 316.41984 81.77256 
L 316.41984 120.69144 
Q 316.41984 122.68728 319.63392 122.68728 
z
" clip-path="url(#pff4934c5f3)" style="fill: #f2fbfa; stroke: #087a74; stroke-width: 1.05; stroke-linejoin: miter"/>
   </g>
   <g id="patch_10">
    <path d="M 379.89792 120.19248 
L 400.38768 120.19248 
Q 403.60176 120.19248 403.60176 118.19664 
L 403.60176 84.26736 
Q 403.60176 82.27152 400.38768 82.27152 
L 379.89792 82.27152 
Q 376.68384 82.27152 376.68384 84.26736 
L 376.68384 118.19664 
Q 376.68384 120.19248 379.89792 120.19248 
z
" clip-path="url(#pff4934c5f3)" style="fill: #ffffff; stroke: #d9d9d9; stroke-width: 0.8; stroke-linejoin: miter"/>
   </g>
   <g id="patch_11">
    <path d="M 26.34912 207.51048 
L 93.04128 207.51048 
Q 96.25536 207.51048 96.25536 205.51464 
L 96.25536 179.06976 
Q 96.25536 177.07392 93.04128 177.07392 
L 26.34912 177.07392 
Q 23.13504 177.07392 23.13504 179.06976 
L 23.13504 205.51464 
Q 23.13504 207.51048 26.34912 207.51048 
z
" clip-path="url(#pff4934c5f3)" style="fill: #f2fbfa; stroke: #087a74; stroke-width: 1.05; stroke-linejoin: miter"/>
   </g>
   <g id="patch_12">
    <path d="M 40.41072 221.23188 
L 78.97968 221.23188 
Q 82.19376 221.23188 82.19376 219.23604 
L 82.19376 211.50216 
Q 82.19376 209.50632 78.97968 209.50632 
L 40.41072 209.50632 
Q 37.19664 209.50632 37.19664 211.50216 
L 37.19664 219.23604 
Q 37.19664 221.23188 40.41072 221.23188 
z
" clip-path="url(#pff4934c5f3)" style="fill: #ffffff; stroke: #087a74; stroke-width: 0.9; stroke-linejoin: miter"/>
   </g>
   <g id="patch_13">
    <path d="M 122.77152 207.51048 
L 173.39328 207.51048 
Q 176.60736 207.51048 176.60736 205.51464 
L 176.60736 179.06976 
Q 176.60736 177.07392 173.39328 177.07392 
L 122.77152 177.07392 
Q 119.55744 177.07392 119.55744 179.06976 
L 119.55744 205.51464 
Q 119.55744 207.51048 122.77152 207.51048 
z
" clip-path="url(#pff4934c5f3)" style="fill: #ffffff; stroke: #d9d9d9; stroke-width: 0.8; stroke-linejoin: miter"/>
   </g>
   <g id="patch_14">
    <path d="M 203.12352 207.51048 
L 261.78048 207.51048 
Q 264.99456 207.51048 264.99456 205.51464 
L 264.99456 179.06976 
Q 264.99456 177.07392 261.78048 177.07392 
L 203.12352 177.07392 
Q 199.90944 177.07392 199.90944 179.06976 
L 199.90944 205.51464 
Q 199.90944 207.51048 203.12352 207.51048 
z
" clip-path="url(#pff4934c5f3)" style="fill: #fff6f4; stroke: #b31f24; stroke-linejoin: miter"/>
   </g>
   <g id="patch_15">
    <path d="M 213.16752 221.23188 
L 251.73648 221.23188 
Q 254.95056 221.23188 254.95056 219.23604 
L 254.95056 211.50216 
Q 254.95056 209.50632 251.73648 209.50632 
L 213.16752 209.50632 
Q 209.95344 209.50632 209.95344 211.50216 
L 209.95344 219.23604 
Q 209.95344 221.23188 213.16752 221.23188 
z
" clip-path="url(#pff4934c5f3)" style="fill: #ffffff; stroke: #b31f24; stroke-width: 0.9; stroke-linejoin: miter"/>
   </g>
   <g id="patch_16">
    <path d="M 291.51072 207.51048 
L 366.23808 207.51048 
Q 369.45216 207.51048 369.45216 205.51464 
L 369.45216 179.06976 
Q 369.45216 177.07392 366.23808 177.07392 
L 291.51072 177.07392 
Q 288.29664 177.07392 288.29664 179.06976 
L 288.29664 205.51464 
Q 288.29664 207.51048 291.51072 207.51048 
z
" clip-path="url(#pff4934c5f3)" style="fill: #f2fbfa; stroke: #087a74; stroke-width: 1.05; stroke-linejoin: miter"/>
   </g>
   <g id="patch_17">
    <path d="M 307.58112 221.23188 
L 350.16768 221.23188 
Q 353.38176 221.23188 353.38176 219.23604 
L 353.38176 211.50216 
Q 353.38176 209.50632 350.16768 209.50632 
L 307.58112 209.50632 
Q 304.36704 209.50632 304.36704 211.50216 
L 304.36704 219.23604 
Q 304.36704 221.23188 307.58112 221.23188 
z
" clip-path="url(#pff4934c5f3)" style="fill: #ffffff; stroke: #087a74; stroke-width: 0.9; stroke-linejoin: miter"/>
   </g>
   <g id="line2d_1">
    <path d="M 162.144 71.2944 
L 176.2056 71.2944 
" clip-path="url(#pff4934c5f3)" style="fill: none; stroke: #666666; stroke-width: 0.8; stroke-linecap: square"/>
   </g>
   <g id="line2d_2">
    <path d="M 162.144 86.2632 
L 176.2056 86.2632 
" clip-path="url(#pff4934c5f3)" style="fill: none; stroke: #666666; stroke-width: 0.8; stroke-linecap: square"/>
   </g>
   <g id="line2d_3">
    <path d="M 162.144 101.232 
L 176.2056 101.232 
" clip-path="url(#pff4934c5f3)" style="fill: none; stroke: #666666; stroke-width: 0.8; stroke-linecap: square"/>
   </g>
   <g id="line2d_4">
    <path d="M 162.144 116.2008 
L 176.2056 116.2008 
" clip-path="url(#pff4934c5f3)" style="fill: none; stroke: #666666; stroke-width: 0.8; stroke-linecap: square"/>
   </g>
   <g id="line2d_5">
    <path d="M 162.144 131.1696 
L 176.2056 131.1696 
" clip-path="url(#pff4934c5f3)" style="fill: none; stroke: #666666; stroke-width: 0.8; stroke-linecap: square"/>
   </g>
   <g id="line2d_6">
    <path d="M 176.2056 131.1696 
L 176.2056 71.2944 
" clip-path="url(#pff4934c5f3)" style="fill: none; stroke: #666666; stroke-width: 0.8; stroke-linecap: square"/>
   </g>
   <g id="line2d_7">
    <path d="M 212.364 92.00124 
L 284.6808 92.00124 
" clip-path="url(#pff4934c5f3)" style="fill: none; stroke: #087a74; stroke-width: 0.65; stroke-linecap: square"/>
   </g>
   <g id="line2d_8">
    <path d="M 212.364 108.21744 
L 284.6808 108.21744 
" clip-path="url(#pff4934c5f3)" style="fill: none; stroke: #087a74; stroke-width: 0.65; stroke-linecap: square"/>
   </g>
   <g id="line2d_9">
    <path d="M 212.364 124.43364 
L 284.6808 124.43364 
" clip-path="url(#pff4934c5f3)" style="fill: none; stroke: #087a74; stroke-width: 0.65; stroke-linecap: square"/>
   </g>
   <g id="text_1">
    <text style="font-weight: 700; font-size: 14px; font-family: 'Arial', 'Helvetica', 'DejaVu Sans', sans-serif; text-anchor: middle; fill: #222222" x="202.32" y="20.363362" transform="rotate(-0 202.32 20.363362)">Candidate-level scoring pipeline and evidence hierarchy</text>
   </g>
   <g id="text_2">
    <text style="font-weight: 700; font-size: 11px; font-family: 'Arial', 'Helvetica', 'DejaVu Sans', sans-serif; text-anchor: start; fill: #222222" x="15.5016" y="41.3568" transform="rotate(-0 15.5016 41.3568)">Candidate-level scoring pipeline</text>
   </g>
   <g id="text_3">
    <text style="font-weight: 700; font-size: 7.6px; font-family: 'Arial', 'Helvetica', 'DejaVu Sans', sans-serif; text-anchor: middle; fill: #222222" x="43.6248" y="86.73282" transform="rotate(-0 43.6248 86.73282)">Query-candidate pair</text>
   </g>
   <g id="text_4">
    <text style="font-size: 6.3px; font-family: 'Arial', 'Helvetica', 'DejaVu Sans', sans-serif; text-anchor: middle; fill: #222222" x="43.6248" y="101.115765" transform="rotate(-0 43.6248 101.115765)">old fragment + attachment</text>
   </g>
   <g id="text_5">
    <text style="font-size: 6.3px; font-family: 'Arial', 'Helvetica', 'DejaVu Sans', sans-serif; text-anchor: middle; fill: #222222" x="43.6248" y="106.852328" transform="rotate(-0 43.6248 106.852328)">candidate</text>
   </g>
   <g id="patch_18">
    <path d="M 73.7568 93.7476 
Q 81.792 93.7476 88.653264 93.7476 
" style="fill: none; stroke: #222222; stroke-width: 1.05; stroke-linecap: round"/>
    <path d="M 84.653264 91.7476 
L 88.653264 93.7476 
L 84.653264 95.7476 
z
" style="fill: #222222; stroke: #222222; stroke-width: 1.05; stroke-linecap: round"/>
   </g>
   <g id="text_6">
    <text style="font-weight: 700; font-size: 8.5px; font-family: 'Arial', 'Helvetica', 'DejaVu Sans', sans-serif; text-anchor: middle; fill: #0b3f99" x="125.9856" y="53.8308" transform="rotate(-0 125.9856 53.8308)">Base-ranker evidence</text>
   </g>
   <g id="text_7">
    <text style="font-size: 7.2px; font-family: 'Arial', 'Helvetica', 'DejaVu Sans', sans-serif; text-anchor: middle; fill: #222222" x="125.9856" y="73.113525" transform="rotate(-0 125.9856 73.113525)">Attachment-Frequency</text>
   </g>
   <g id="text_8">
    <text style="font-size: 7.2px; font-family: 'Arial', 'Helvetica', 'DejaVu Sans', sans-serif; text-anchor: middle; fill: #222222" x="125.9856" y="88.124512" transform="rotate(-0 125.9856 88.124512)">HGB</text>
   </g>
   <g id="text_9">
    <text style="font-size: 7.2px; font-family: 'Arial', 'Helvetica', 'DejaVu Sans', sans-serif; text-anchor: middle; fill: #222222" x="125.9856" y="103.093312" transform="rotate(-0 125.9856 103.093312)">Dual Encoder</text>
   </g>
   <g id="text_10">
    <text style="font-size: 7.2px; font-family: 'Arial', 'Helvetica', 'DejaVu Sans', sans-serif; text-anchor: middle; fill: #222222" x="125.9856" y="118.0638" transform="rotate(-0 125.9856 118.0638)">Borda(DE,HGB)</text>
   </g>
   <g id="text_11">
    <text style="font-size: 7.2px; font-family: 'Arial', 'Helvetica', 'DejaVu Sans', sans-serif; text-anchor: middle; fill: #222222" x="125.9856" y="133.030912" transform="rotate(-0 125.9856 133.030912)">MLP / Score Blend</text>
   </g>
   <g id="patch_19">
    <path d="M 176.2056 101.232 
Q 187.254 101.232 197.128464 101.232 
" style="fill: none; stroke: #222222; stroke-width: 1.05; stroke-linecap: round"/>
    <path d="M 193.128464 99.232 
L 197.128464 101.232 
L 193.128464 103.232 
z
" style="fill: #222222; stroke: #222222; stroke-width: 1.05; stroke-linecap: round"/>
   </g>
   <g id="text_12">
    <text style="font-size: 6.5px; font-family: 'Arial', 'Helvetica', 'DejaVu Sans', sans-serif; text-anchor: middle; fill: #666666" x="180.2232" y="138.654" transform="rotate(-0 180.2232 138.654)">stack</text>
   </g>
   <g id="text_13">
    <text style="font-weight: 700; font-size: 9.2px; font-family: 'Arial', 'Helvetica', 'DejaVu Sans', sans-serif; fill: #087a74" transform="translate(197.9109 97.510519)">Candidate-level feature</text>
    <text style="font-weight: 700; font-size: 9.2px; font-family: 'Arial', 'Helvetica', 'DejaVu Sans', sans-serif; fill: #087a74" transform="translate(234.715931 107.228306)">matrix</text>
   </g>
   <g id="text_14">
    <text style="font-size: 7.6px; font-family: 'Arial', 'Helvetica', 'DejaVu Sans', sans-serif; text-anchor: middle; fill: #222222" x="248.5224" y="85.733119" transform="rotate(-0 248.5224 85.733119)">model outputs</text>
   </g>
   <g id="text_15">
    <text style="font-size: 7.6px; font-family: 'Arial', 'Helvetica', 'DejaVu Sans', sans-serif; text-anchor: middle; fill: #222222" x="248.5224" y="101.949319" transform="rotate(-0 248.5224 101.949319)">train-derived priors</text>
   </g>
   <g id="text_16">
    <text style="font-size: 7.6px; font-family: 'Arial', 'Helvetica', 'DejaVu Sans', sans-serif; text-anchor: middle; fill: #222222" x="248.5224" y="118.165519" transform="rotate(-0 248.5224 118.165519)">molecular descriptors</text>
   </g>
   <g id="text_17">
    <text style="font-size: 7.6px; font-family: 'Arial', 'Helvetica', 'DejaVu Sans', sans-serif; text-anchor: middle; fill: #222222" x="248.5224" y="134.3835" transform="rotate(-0 248.5224 134.3835)">frozen categorical schema</text>
   </g>
   <g id="patch_20">
    <path d="M 300.7512 101.232 
Q 306.7776 101.232 311.630064 101.232 
" style="fill: none; stroke: #222222; stroke-width: 1.05; stroke-linecap: round"/>
    <path d="M 307.630064 99.232 
L 311.630064 101.232 
L 307.630064 103.232 
z
" style="fill: #222222; stroke: #222222; stroke-width: 1.05; stroke-linecap: round"/>
   </g>
   <g id="text_18">
    <text style="font-weight: 700; font-size: 7.8px; font-family: 'Arial', 'Helvetica', 'DejaVu Sans', sans-serif; text-anchor: middle; fill: #087a74" x="338.9184" y="94.272626" transform="rotate(-0 338.9184 94.272626)">HistGB scorer</text>
   </g>
   <g id="text_19">
    <text style="font-size: 6.5px; font-family: 'Arial', 'Helvetica', 'DejaVu Sans', sans-serif; text-anchor: middle; fill: #222222" x="338.9184" y="108.650392" transform="rotate(-0 338.9184 108.650392)">candidate-level</text>
   </g>
   <g id="text_20">
    <text style="font-size: 6.5px; font-family: 'Arial', 'Helvetica', 'DejaVu Sans', sans-serif; text-anchor: middle; fill: #222222" x="338.9184" y="114.350346" transform="rotate(-0 338.9184 114.350346)">integration</text>
   </g>
   <g id="patch_21">
    <path d="M 363.024 101.232 
Q 369.0504 101.232 373.902864 101.232 
" style="fill: none; stroke: #222222; stroke-width: 1.05; stroke-linecap: round"/>
    <path d="M 369.902864 99.232 
L 373.902864 101.232 
L 369.902864 103.232 
z
" style="fill: #222222; stroke: #222222; stroke-width: 1.05; stroke-linecap: round"/>
   </g>
   <g id="text_21">
    <text style="font-weight: 700; font-size: 7px; font-family: 'Arial', 'Helvetica', 'DejaVu Sans', sans-serif; text-anchor: middle; fill: #222222" x="390.1428" y="94.019314" transform="rotate(-0 390.1428 94.019314)">Final ranking</text>
   </g>
   <g id="text_22">
    <text style="font-size: 5.7px; font-family: 'Arial', 'Helvetica', 'DejaVu Sans', sans-serif; text-anchor: middle; fill: #222222" x="390.1428" y="108.376782" transform="rotate(-0 390.1428 108.376782)">per-query</text>
   </g>
   <g id="text_23">
    <text style="font-size: 5.7px; font-family: 'Arial', 'Helvetica', 'DejaVu Sans', sans-serif; text-anchor: middle; fill: #222222" x="390.1428" y="114.181619" transform="rotate(-0 390.1428 114.181619)">candidate order</text>
   </g>
   <g id="text_24">
    <text style="font-weight: 700; font-size: 11px; font-family: 'Arial', 'Helvetica', 'DejaVu Sans', sans-serif; text-anchor: start; fill: #222222" x="15.5016" y="164.8494" transform="rotate(-0 15.5016 164.8494)">Post-audit pruning strip</text>
   </g>
   <g id="text_25">
    <text style="font-weight: 700; font-size: 7.7px; font-family: 'Arial', 'Helvetica', 'DejaVu Sans', sans-serif; text-anchor: middle; fill: #087a74" x="59.6952" y="185.306904" transform="rotate(-0 59.6952 185.306904)">Initial 82-feature scorer</text>
   </g>
   <g id="text_26">
    <text style="font-size: 6.4px; font-family: 'Arial', 'Helvetica', 'DejaVu Sans', sans-serif; text-anchor: middle; fill: #222222" x="59.6952" y="199.68474" transform="rotate(-0 59.6952 199.68474)">base 77-feature set</text>
   </g>
   <g id="text_27">
    <text style="font-size: 6.4px; font-family: 'Arial', 'Helvetica', 'DejaVu Sans', sans-serif; text-anchor: middle; fill: #222222" x="59.6952" y="205.42278" transform="rotate(-0 59.6952 205.42278)">+ prior ranks</text>
   </g>
   <g id="text_28">
    <text style="font-weight: 700; font-size: 6.6px; font-family: 'Arial', 'Helvetica', 'DejaVu Sans', sans-serif; text-anchor: middle; fill: #087a74" x="59.6952" y="217.079944" transform="rotate(-0 59.6952 217.079944)">prospective</text>
   </g>
   <g id="patch_22">
    <path d="M 101.88 192.2922 
Q 108.9108 192.2922 114.767664 192.2922 
" style="fill: none; stroke: #222222; stroke-width: 1.05; stroke-linecap: round"/>
    <path d="M 110.767664 190.2922 
L 114.767664 192.2922 
L 110.767664 194.2922 
z
" style="fill: #222222; stroke: #222222; stroke-width: 1.05; stroke-linecap: round"/>
   </g>
   <g id="text_29">
    <text style="font-weight: 700; font-size: 7.8px; font-family: 'Arial', 'Helvetica', 'DejaVu Sans', sans-serif; fill: #222222" transform="translate(117.745275 190.139766)">Secondary blind</text>
    <text style="font-weight: 700; font-size: 7.8px; font-family: 'Arial', 'Helvetica', 'DejaVu Sans', sans-serif; fill: #222222" transform="translate(126.413634 198.481134)">diagnostics</text>
   </g>
   <g id="patch_23">
    <path d="M 182.232 192.2922 
Q 189.2628 192.2922 195.119664 192.2922 
" style="fill: none; stroke: #222222; stroke-width: 1.05; stroke-linecap: round"/>
    <path d="M 191.119664 190.2922 
L 195.119664 192.2922 
L 191.119664 194.2922 
z
" style="fill: #222222; stroke: #222222; stroke-width: 1.05; stroke-linecap: round"/>
   </g>
   <g id="text_30">
    <text style="font-weight: 700; font-size: 7.7px; font-family: 'Arial', 'Helvetica', 'DejaVu Sans', sans-serif; text-anchor: middle; fill: #b31f24" x="232.452" y="185.306904" transform="rotate(-0 232.452 185.306904)">Remove prior ranks</text>
   </g>
   <g id="text_31">
    <text style="font-size: 6.4px; font-family: 'Arial', 'Helvetica', 'DejaVu Sans', sans-serif; text-anchor: middle; fill: #222222" x="232.452" y="199.68474" transform="rotate(-0 232.452 199.68474)">non-transferable</text>
   </g>
   <g id="text_32">
    <text style="font-size: 6.4px; font-family: 'Arial', 'Helvetica', 'DejaVu Sans', sans-serif; text-anchor: middle; fill: #222222" x="232.452" y="205.42278" transform="rotate(-0 232.452 205.42278)">shortcut</text>
   </g>
   <g id="text_33">
    <text style="font-weight: 700; font-size: 6.4px; font-family: 'Arial', 'Helvetica', 'DejaVu Sans', sans-serif; text-anchor: middle; fill: #b31f24" x="232.452" y="217.0281" transform="rotate(-0 232.452 217.0281)">removed add-on</text>
   </g>
   <g id="patch_24">
    <path d="M 270.6192 192.2922 
Q 277.65 192.2922 283.506864 192.2922 
" style="fill: none; stroke: #222222; stroke-width: 1.05; stroke-linecap: round"/>
    <path d="M 279.506864 190.2922 
L 283.506864 192.2922 
L 279.506864 194.2922 
z
" style="fill: #222222; stroke: #222222; stroke-width: 1.05; stroke-linecap: round"/>
   </g>
   <g id="text_34">
    <text style="font-weight: 700; font-size: 7.6px; font-family: 'Arial', 'Helvetica', 'DejaVu Sans', sans-serif; text-anchor: middle; fill: #087a74" x="328.8744" y="189.771622" transform="rotate(-0 328.8744 189.771622)">Post-audit 77-feature scorer</text>
   </g>
   <g id="text_35">
    <text style="font-size: 6.3px; font-family: 'Arial', 'Helvetica', 'DejaVu Sans', sans-serif; text-anchor: middle; fill: #222222" x="328.8744" y="199.658888" transform="rotate(-0 328.8744 199.658888)">base 77-feature set</text>
   </g>
   <g id="text_36">
    <text style="font-weight: 700; font-size: 6.4px; font-family: 'Arial', 'Helvetica', 'DejaVu Sans', sans-serif; text-anchor: middle; fill: #087a74" x="328.8744" y="217.0281" transform="rotate(-0 328.8744 217.0281)">post-audit locked</text>
   </g>
  </g>
 </g>
 <defs>
  <clipPath id="pff4934c5f3">
   <rect x="1.44" y="1.44" width="401.76" height="249.48"/>
  </clipPath>
 </defs>
</svg>
