<?xml version="1.0" encoding="utf-8" standalone="no"?>
<!DOCTYPE svg PUBLIC "-//W3C//DTD SVG 1.1//EN"
  "http://www.w3.org/Graphics/SVG/1.1/DTD/svg11.dtd">
<svg xmlns:xlink="http://www.w3.org/1999/xlink" width="347.048pt" height="228.367719pt" viewBox="0 0 347.048 228.367719" xmlns="http://www.w3.org/2000/svg" version="1.1">
 <metadata>
  <rdf:RDF xmlns:dc="http://purl.org/dc/elements/1.1/" xmlns:cc="http://creativecommons.org/ns#" xmlns:rdf="http://www.w3.org/1999/02/22-rdf-syntax-ns#">
   <cc:Work>
    <dc:type rdf:resource="http://purl.org/dc/dcmitype/StillImage"/>
    <dc:date>2026-06-02T14:42:15.305086</dc:date>
    <dc:format>image/svg+xml</dc:format>
    <dc:creator>
     <cc:Agent>
      <dc:title>Matplotlib v3.10.8, https://matplotlib.org/</dc:title>
     </cc:Agent>
    </dc:creator>
   </cc:Work>
  </rdf:RDF>
 </metadata>
 <defs>
  <style type="text/css">*{stroke-linejoin: round; stroke-linecap: butt}</style>
 </defs>
 <g id="figure_1">
  <g id="patch_1">
   <path d="M 0 228.367719 
L 347.048 228.367719 
L 347.048 0 
L 0 0 
z
" style="fill: #ffffff"/>
  </g>
  <g id="axes_1">
   <g id="patch_2">
    <path d="M 77.768 202.487719 
L 345.608 202.487719 
L 345.608 13.991719 
L 77.768 13.991719 
z
" style="fill: #ffffff"/>
   </g>
   <g id="matplotlib.axis_1">
    <g id="xtick_1">
     <g id="line2d_1">
      <path d="M 92.648 202.487719 
L 92.648 13.991719 
" clip-path="url(#pd848cfc2be)" style="fill: none; stroke: #e8e8e8; stroke-width: 0.45; stroke-linecap: square"/>
     </g>
     <g id="line2d_2">
      <defs>
       <path id="mdc67522f9b" d="M 0 0 
L 0 3.5 
" style="stroke: #000000; stroke-width: 0.8"/>
      </defs>
      <g>
       <use xlink:href="#mdc67522f9b" x="92.648" y="202.487719" style="stroke: #000000; stroke-width: 0.8"/>
      </g>
     </g>
     <g id="text_1">
      <text style="font-size: 7px; font-family: 'Arial', 'Helvetica', 'DejaVu Sans', sans-serif; text-anchor: middle" x="92.648" y="214.498187" transform="rotate(-0 92.648 214.498187)">0.6</text>
     </g>
    </g>
    <g id="xtick_2">
     <g id="line2d_3">
      <path d="M 167.048 202.487719 
L 167.048 13.991719 
" clip-path="url(#pd848cfc2be)" style="fill: none; stroke: #e8e8e8; stroke-width: 0.45; stroke-linecap: square"/>
     </g>
     <g id="line2d_4">
      <g>
       <use xlink:href="#mdc67522f9b" x="167.048" y="202.487719" style="stroke: #000000; stroke-width: 0.8"/>
      </g>
     </g>
     <g id="text_2">
      <text style="font-size: 7px; font-family: 'Arial', 'Helvetica', 'DejaVu Sans', sans-serif; text-anchor: middle" x="167.048" y="214.498187" transform="rotate(-0 167.048 214.498187)">0.7</text>
     </g>
    </g>
    <g id="xtick_3">
     <g id="line2d_5">
      <path d="M 241.448 202.487719 
L 241.448 13.991719 
" clip-path="url(#pd848cfc2be)" style="fill: none; stroke: #e8e8e8; stroke-width: 0.45; stroke-linecap: square"/>
     </g>
     <g id="line2d_6">
      <g>
       <use xlink:href="#mdc67522f9b" x="241.448" y="202.487719" style="stroke: #000000; stroke-width: 0.8"/>
      </g>
     </g>
     <g id="text_3">
      <text style="font-size: 7px; font-family: 'Arial', 'Helvetica', 'DejaVu Sans', sans-serif; text-anchor: middle" x="241.448" y="214.498187" transform="rotate(-0 241.448 214.498187)">0.8</text>
     </g>
    </g>
    <g id="xtick_4">
     <g id="line2d_7">
      <path d="M 315.848 202.487719 
L 315.848 13.991719 
" clip-path="url(#pd848cfc2be)" style="fill: none; stroke: #e8e8e8; stroke-width: 0.45; stroke-linecap: square"/>
     </g>
     <g id="line2d_8">
      <g>
       <use xlink:href="#mdc67522f9b" x="315.848" y="202.487719" style="stroke: #000000; stroke-width: 0.8"/>
      </g>
     </g>
     <g id="text_4">
      <text style="font-size: 7px; font-family: 'Arial', 'Helvetica', 'DejaVu Sans', sans-serif; text-anchor: middle" x="315.848" y="214.498187" transform="rotate(-0 315.848 214.498187)">0.9</text>
     </g>
    </g>
    <g id="text_5">
     <text style="font-size: 7.5px; font-family: 'Arial', 'Helvetica', 'DejaVu Sans', sans-serif; text-anchor: middle" x="211.688" y="225.349203" transform="rotate(-0 211.688 225.349203)">Secondary blind Top-10</text>
    </g>
   </g>
   <g id="matplotlib.axis_2">
    <g id="ytick_1">
     <g id="line2d_9"/>
     <g id="text_6">
      <text style="font-size: 7.2px; font-family: 'Arial', 'Helvetica', 'DejaVu Sans', sans-serif; text-anchor: end" x="74.268" y="25.136531" transform="rotate(-0 74.268 25.136531)">Attachment-Frequency</text>
     </g>
    </g>
    <g id="ytick_2">
     <g id="line2d_10"/>
     <g id="text_7">
      <text style="font-size: 7.2px; font-family: 'Arial', 'Helvetica', 'DejaVu Sans', sans-serif; text-anchor: end" x="74.268" y="46.556531" transform="rotate(-0 74.268 46.556531)">HGB</text>
     </g>
    </g>
    <g id="ytick_3">
     <g id="line2d_11"/>
     <g id="text_8">
      <text style="font-size: 7.2px; font-family: 'Arial', 'Helvetica', 'DejaVu Sans', sans-serif; text-anchor: end" x="74.268" y="67.976531" transform="rotate(-0 74.268 67.976531)">Dual Encoder</text>
     </g>
    </g>
    <g id="ytick_4">
     <g id="line2d_12"/>
     <g id="text_9">
      <text style="font-size: 7.2px; font-family: 'Arial', 'Helvetica', 'DejaVu Sans', sans-serif; text-anchor: end" x="74.268" y="89.440406" transform="rotate(-0 74.268 89.440406)">Borda(DE,HGB)</text>
     </g>
    </g>
    <g id="ytick_5">
     <g id="line2d_13"/>
     <g id="text_10">
      <text style="font-size: 7.2px; font-family: 'Arial', 'Helvetica', 'DejaVu Sans', sans-serif; text-anchor: end" x="74.268" y="110.816531" transform="rotate(-0 74.268 110.816531)">MLP</text>
     </g>
    </g>
    <g id="ytick_6">
     <g id="line2d_14"/>
     <g id="text_11">
      <text style="font-size: 7.2px; font-family: 'Arial', 'Helvetica', 'DejaVu Sans', sans-serif; text-anchor: end" x="74.268" y="132.236531" transform="rotate(-0 74.268 132.236531)">Score Blend</text>
     </g>
    </g>
    <g id="ytick_7">
     <g id="line2d_15"/>
     <g id="text_12">
      <text style="font-size: 7.2px; font-family: 'Arial', 'Helvetica', 'DejaVu Sans', sans-serif" transform="translate(19.44675 150.320344)">82-feature scorer</text>
      <text style="font-size: 7.2px; font-family: 'Arial', 'Helvetica', 'DejaVu Sans', sans-serif" transform="translate(32.6565 158.040994)">(prospective)</text>
     </g>
    </g>
    <g id="ytick_8">
     <g id="line2d_16"/>
     <g id="text_13">
      <text style="font-size: 7.2px; font-family: 'Arial', 'Helvetica', 'DejaVu Sans', sans-serif" transform="translate(19.44675 171.740344)">77-feature scorer</text>
      <text style="font-size: 7.2px; font-family: 'Arial', 'Helvetica', 'DejaVu Sans', sans-serif" transform="translate(37.85625 179.460994)">(post-audit)</text>
     </g>
    </g>
    <g id="ytick_9">
     <g id="line2d_17"/>
     <g id="text_14">
      <text style="font-size: 7.2px; font-family: 'Arial', 'Helvetica', 'DejaVu Sans', sans-serif" transform="translate(19.252125 193.160344)">Best-of-DE+HGB</text>
      <text style="font-size: 7.2px; font-family: 'Arial', 'Helvetica', 'DejaVu Sans', sans-serif" transform="translate(37.054125 200.880994)">(diagnostic)</text>
     </g>
    </g>
   </g>
   <g id="line2d_18">
    <path d="M 77.768 76.109719 
L 345.608 76.109719 
" clip-path="url(#pd848cfc2be)" style="fill: none; stroke: #e8e8e8; stroke-width: 0.5; stroke-linecap: square"/>
   </g>
   <g id="line2d_19">
    <path d="M 77.768 140.369719 
L 345.608 140.369719 
" clip-path="url(#pd848cfc2be)" style="fill: none; stroke: #e8e8e8; stroke-width: 0.5; stroke-linecap: square"/>
   </g>
   <g id="line2d_20">
    <path d="M 77.768 183.209719 
L 345.608 183.209719 
" clip-path="url(#pd848cfc2be)" style="fill: none; stroke: #e8e8e8; stroke-width: 0.5; stroke-linecap: square"/>
   </g>
   <g id="patch_3">
    <path d="M 77.768 202.487719 
L 345.608 202.487719 
" style="fill: none; stroke: #d9d9d9; stroke-width: 0.7; stroke-linejoin: miter; stroke-linecap: square"/>
   </g>
   <g id="LineCollection_1">
    <path d="M 87.6632 22.559719 
L 100.3856 22.559719 
" clip-path="url(#pd848cfc2be)" style="fill: none; stroke: #666666; stroke-width: 0.8"/>
   </g>
   <g id="line2d_21">
    <defs>
     <path id="m0027c25ed7" d="M 0 1.8 
L 0 -1.8 
" style="stroke: #666666"/>
    </defs>
    <g clip-path="url(#pd848cfc2be)">
     <use xlink:href="#m0027c25ed7" x="87.6632" y="22.559719" style="fill: #666666; stroke: #666666"/>
    </g>
   </g>
   <g id="line2d_22">
    <g clip-path="url(#pd848cfc2be)">
     <use xlink:href="#m0027c25ed7" x="100.3856" y="22.559719" style="fill: #666666; stroke: #666666"/>
    </g>
   </g>
   <g id="LineCollection_2">
    <path d="M 193.5344 43.979719 
L 205.4384 43.979719 
" clip-path="url(#pd848cfc2be)" style="fill: none; stroke: #666666; stroke-width: 0.8"/>
   </g>
   <g id="line2d_23">
    <g clip-path="url(#pd848cfc2be)">
     <use xlink:href="#m0027c25ed7" x="193.5344" y="43.979719" style="fill: #666666; stroke: #666666"/>
    </g>
   </g>
   <g id="line2d_24">
    <g clip-path="url(#pd848cfc2be)">
     <use xlink:href="#m0027c25ed7" x="205.4384" y="43.979719" style="fill: #666666; stroke: #666666"/>
    </g>
   </g>
   <g id="LineCollection_3">
    <path d="M 240.4064 65.399719 
L 250.5248 65.399719 
" clip-path="url(#pd848cfc2be)" style="fill: none; stroke: #666666; stroke-width: 0.8"/>
   </g>
   <g id="line2d_25">
    <g clip-path="url(#pd848cfc2be)">
     <use xlink:href="#m0027c25ed7" x="240.4064" y="65.399719" style="fill: #666666; stroke: #666666"/>
    </g>
   </g>
   <g id="line2d_26">
    <g clip-path="url(#pd848cfc2be)">
     <use xlink:href="#m0027c25ed7" x="250.5248" y="65.399719" style="fill: #666666; stroke: #666666"/>
    </g>
   </g>
   <g id="LineCollection_4">
    <path d="M 265.3304 86.819719 
L 274.7048 86.819719 
" clip-path="url(#pd848cfc2be)" style="fill: none; stroke: #496a88; stroke-width: 0.8"/>
   </g>
   <g id="line2d_27">
    <defs>
     <path id="mf15a485569" d="M 0 1.8 
L 0 -1.8 
" style="stroke: #496a88"/>
    </defs>
    <g clip-path="url(#pd848cfc2be)">
     <use xlink:href="#mf15a485569" x="265.3304" y="86.819719" style="fill: #496a88; stroke: #496a88"/>
    </g>
   </g>
   <g id="line2d_28">
    <g clip-path="url(#pd848cfc2be)">
     <use xlink:href="#mf15a485569" x="274.7048" y="86.819719" style="fill: #496a88; stroke: #496a88"/>
    </g>
   </g>
   <g id="LineCollection_5">
    <path d="M 266.6696 108.239719 
L 276.1184 108.239719 
" clip-path="url(#pd848cfc2be)" style="fill: none; stroke: #496a88; stroke-width: 0.8"/>
   </g>
   <g id="line2d_29">
    <g clip-path="url(#pd848cfc2be)">
     <use xlink:href="#mf15a485569" x="266.6696" y="108.239719" style="fill: #496a88; stroke: #496a88"/>
    </g>
   </g>
   <g id="line2d_30">
    <g clip-path="url(#pd848cfc2be)">
     <use xlink:href="#mf15a485569" x="276.1184" y="108.239719" style="fill: #496a88; stroke: #496a88"/>
    </g>
   </g>
   <g id="LineCollection_6">
    <path d="M 278.276 129.659719 
L 287.6504 129.659719 
" clip-path="url(#pd848cfc2be)" style="fill: none; stroke: #496a88; stroke-width: 0.8"/>
   </g>
   <g id="line2d_31">
    <g clip-path="url(#pd848cfc2be)">
     <use xlink:href="#mf15a485569" x="278.276" y="129.659719" style="fill: #496a88; stroke: #496a88"/>
    </g>
   </g>
   <g id="line2d_32">
    <g clip-path="url(#pd848cfc2be)">
     <use xlink:href="#mf15a485569" x="287.6504" y="129.659719" style="fill: #496a88; stroke: #496a88"/>
    </g>
   </g>
   <g id="LineCollection_7">
    <path d="M 300.6704 151.079719 
L 308.6312 151.079719 
" clip-path="url(#pd848cfc2be)" style="fill: none; stroke: #c9873a; stroke-width: 0.8"/>
   </g>
   <g id="line2d_33">
    <defs>
     <path id="m90796a02aa" d="M 0 1.8 
L 0 -1.8 
" style="stroke: #c9873a"/>
    </defs>
    <g clip-path="url(#pd848cfc2be)">
     <use xlink:href="#m90796a02aa" x="300.6704" y="151.079719" style="fill: #c9873a; stroke: #c9873a"/>
    </g>
   </g>
   <g id="line2d_34">
    <g clip-path="url(#pd848cfc2be)">
     <use xlink:href="#m90796a02aa" x="308.6312" y="151.079719" style="fill: #c9873a; stroke: #c9873a"/>
    </g>
   </g>
   <g id="LineCollection_8">
    <path d="M 330.6536 172.499719 
L 337.2008 172.499719 
" clip-path="url(#pd848cfc2be)" style="fill: none; stroke: #087a74; stroke-width: 0.8"/>
   </g>
   <g id="line2d_35">
    <defs>
     <path id="mc99d54e951" d="M 0 1.8 
L 0 -1.8 
" style="stroke: #087a74"/>
    </defs>
    <g clip-path="url(#pd848cfc2be)">
     <use xlink:href="#mc99d54e951" x="330.6536" y="172.499719" style="fill: #087a74; stroke: #087a74"/>
    </g>
   </g>
   <g id="line2d_36">
    <g clip-path="url(#pd848cfc2be)">
     <use xlink:href="#mc99d54e951" x="337.2008" y="172.499719" style="fill: #087a74; stroke: #087a74"/>
    </g>
   </g>
   <g id="PathCollection_1">
    <defs>
     <path id="mfd18326655" d="M 0 2.236068 
C 0.593012 2.236068 1.161816 2.000462 1.581139 1.581139 
C 2.000462 1.161816 2.236068 0.593012 2.236068 0 
C 2.236068 -0.593012 2.000462 -1.161816 1.581139 -1.581139 
C 1.161816 -2.000462 0.593012 -2.236068 0 -2.236068 
C -0.593012 -2.236068 -1.161816 -2.000462 -1.581139 -1.581139 
C -2.000462 -1.161816 -2.236068 -0.593012 -2.236068 0 
C -2.236068 0.593012 -2.000462 1.161816 -1.581139 1.581139 
C -1.161816 2.000462 -0.593012 2.236068 0 2.236068 
z
" style="stroke: #b5b5b5; stroke-width: 0.8"/>
    </defs>
    <g clip-path="url(#pd848cfc2be)">
     <use xlink:href="#mfd18326655" x="292.4864" y="193.919719" style="fill: #ffffff; stroke: #b5b5b5; stroke-width: 0.8"/>
    </g>
   </g>
   <g id="text_15">
    <text style="font-weight: 700; font-size: 9px; font-family: 'Arial', 'Helvetica', 'DejaVu Sans', sans-serif; text-anchor: start" x="77.768" y="7.991719" transform="rotate(-0 77.768 7.991719)">Secondary blind Top-10 performance</text>
   </g>
   <g id="line2d_37">
    <defs>
     <path id="md8c3102c11" d="M 0 1.5 
C 0.397805 1.5 0.77937 1.341951 1.06066 1.06066 
C 1.341951 0.77937 1.5 0.397805 1.5 0 
C 1.5 -0.397805 1.341951 -0.77937 1.06066 -1.06066 
C 0.77937 -1.341951 0.397805 -1.5 0 -1.5 
C -0.397805 -1.5 -0.77937 -1.341951 -1.06066 -1.06066 
C -1.341951 -0.77937 -1.5 -0.397805 -1.5 0 
C -1.5 0.397805 -1.341951 0.77937 -1.06066 1.06066 
C -0.77937 1.341951 -0.397805 1.5 0 1.5 
z
" style="stroke: #666666"/>
    </defs>
    <g clip-path="url(#pd848cfc2be)">
     <use xlink:href="#md8c3102c11" x="94.0616" y="22.559719" style="fill: #666666; stroke: #666666"/>
    </g>
   </g>
   <g id="line2d_38">
    <g clip-path="url(#pd848cfc2be)">
     <use xlink:href="#md8c3102c11" x="199.5608" y="43.979719" style="fill: #666666; stroke: #666666"/>
    </g>
   </g>
   <g id="line2d_39">
    <g clip-path="url(#pd848cfc2be)">
     <use xlink:href="#md8c3102c11" x="245.54" y="65.399719" style="fill: #666666; stroke: #666666"/>
    </g>
   </g>
   <g id="line2d_40">
    <defs>
     <path id="m1f0b9b14af" d="M 0 1.5 
C 0.397805 1.5 0.77937 1.341951 1.06066 1.06066 
C 1.341951 0.77937 1.5 0.397805 1.5 0 
C 1.5 -0.397805 1.341951 -0.77937 1.06066 -1.06066 
C 0.77937 -1.341951 0.397805 -1.5 0 -1.5 
C -0.397805 -1.5 -0.77937 -1.341951 -1.06066 -1.06066 
C -1.341951 -0.77937 -1.5 -0.397805 -1.5 0 
C -1.5 0.397805 -1.341951 0.77937 -1.06066 1.06066 
C -0.77937 1.341951 -0.397805 1.5 0 1.5 
z
" style="stroke: #496a88"/>
    </defs>
    <g clip-path="url(#pd848cfc2be)">
     <use xlink:href="#m1f0b9b14af" x="270.0176" y="86.819719" style="fill: #496a88; stroke: #496a88"/>
    </g>
   </g>
   <g id="line2d_41">
    <g clip-path="url(#pd848cfc2be)">
     <use xlink:href="#m1f0b9b14af" x="271.3568" y="108.239719" style="fill: #496a88; stroke: #496a88"/>
    </g>
   </g>
   <g id="line2d_42">
    <g clip-path="url(#pd848cfc2be)">
     <use xlink:href="#m1f0b9b14af" x="282.9632" y="129.659719" style="fill: #496a88; stroke: #496a88"/>
    </g>
   </g>
   <g id="line2d_43">
    <defs>
     <path id="m30cb90eb24" d="M 0 1.5 
C 0.397805 1.5 0.77937 1.341951 1.06066 1.06066 
C 1.341951 0.77937 1.5 0.397805 1.5 0 
C 1.5 -0.397805 1.341951 -0.77937 1.06066 -1.06066 
C 0.77937 -1.341951 0.397805 -1.5 0 -1.5 
C -0.397805 -1.5 -0.77937 -1.341951 -1.06066 -1.06066 
C -1.341951 -0.77937 -1.5 -0.397805 -1.5 0 
C -1.5 0.397805 -1.341951 0.77937 -1.06066 1.06066 
C -0.77937 1.341951 -0.397805 1.5 0 1.5 
z
" style="stroke: #c9873a"/>
    </defs>
    <g clip-path="url(#pd848cfc2be)">
     <use xlink:href="#m30cb90eb24" x="304.7624" y="151.079719" style="fill: #c9873a; stroke: #c9873a"/>
    </g>
   </g>
   <g id="line2d_44">
    <defs>
     <path id="m8111d2f04c" d="M 0 1.5 
C 0.397805 1.5 0.77937 1.341951 1.06066 1.06066 
C 1.341951 0.77937 1.5 0.397805 1.5 0 
C 1.5 -0.397805 1.341951 -0.77937 1.06066 -1.06066 
C 0.77937 -1.341951 0.397805 -1.5 0 -1.5 
C -0.397805 -1.5 -0.77937 -1.341951 -1.06066 -1.06066 
C -1.341951 -0.77937 -1.5 -0.397805 -1.5 0 
C -1.5 0.397805 -1.341951 0.77937 -1.06066 1.06066 
C -0.77937 1.341951 -0.397805 1.5 0 1.5 
z
" style="stroke: #087a74"/>
    </defs>
    <g clip-path="url(#pd848cfc2be)">
     <use xlink:href="#m8111d2f04c" x="333.9272" y="172.499719" style="fill: #087a74; stroke: #087a74"/>
    </g>
   </g>
  </g>
 </g>
 <defs>
  <clipPath id="pd848cfc2be">
   <rect x="77.768" y="13.991719" width="267.84" height="188.496"/>
  </clipPath>
 </defs>
</svg>
