<?xml version="1.0" encoding="utf-8" standalone="no"?>
<!DOCTYPE svg PUBLIC "-//W3C//DTD SVG 1.1//EN"
  "http://www.w3.org/Graphics/SVG/1.1/DTD/svg11.dtd">
<!-- Created with matplotlib (http://matplotlib.org/) -->
<svg height="299.439112pt" version="1.1" viewBox="0 0 429.672819 299.439112" width="429.672819pt" xmlns="http://www.w3.org/2000/svg" xmlns:xlink="http://www.w3.org/1999/xlink">
 <defs>
  <style type="text/css">
*{stroke-linecap:butt;stroke-linejoin:round;}
  </style>
 </defs>
 <g id="figure_1">
  <g id="patch_1">
   <path d="M 0 299.439112 
L 429.672819 299.439112 
L 429.672819 0 
L 0 0 
z
" style="fill:#ffffff;"/>
  </g>
  <g id="axes_1">
   <g id="patch_2">
    <path d="M 81.505 266.9868 
L 407.125 266.9868 
L 407.125 24.5628 
L 81.505 24.5628 
z
" style="fill:#ffffff;"/>
   </g>
   <g id="line2d_1">
    <path clip-path="url(#pc9a5121d26)" d="M 81.505 106.674155 
L 407.125 106.674155 
" style="fill:none;stroke:#dddddd;stroke-linecap:square;stroke-width:0.5;"/>
   </g>
   <g id="line2d_2">
    <path clip-path="url(#pc9a5121d26)" d="M 81.505 184.875445 
L 407.125 184.875445 
" style="fill:none;stroke:#dddddd;stroke-linecap:square;stroke-width:0.5;"/>
   </g>
   <g id="line2d_3">
    <path clip-path="url(#pc9a5121d26)" d="M 81.505 237.009639 
L 407.125 237.009639 
" style="fill:none;stroke:#dddddd;stroke-linecap:square;stroke-width:0.5;"/>
   </g>
   <g id="matplotlib.axis_1">
    <g id="xtick_1">
     <g id="line2d_4">
      <path clip-path="url(#pc9a5121d26)" d="M 99.595 266.9868 
L 99.595 24.5628 
" style="fill:none;stroke:#e7e7e7;stroke-linecap:square;stroke-width:0.5;"/>
     </g>
     <g id="line2d_5">
      <defs>
       <path d="M 0 0 
L 0 3.5 
" id="me6ef3bb99b" style="stroke:#000000;stroke-width:0.6;"/>
      </defs>
      <g>
       <use style="stroke:#000000;stroke-width:0.6;" x="99.595" xlink:href="#me6ef3bb99b" y="266.9868"/>
      </g>
     </g>
     <g id="text_1">
      <text style="font-family:Arial;font-size:7px;font-style:normal;font-weight:normal;text-anchor:middle;" transform="rotate(-0, 99.595, 278.997269)" x="99.595" y="278.997269">0.60</text>
     </g>
    </g>
    <g id="xtick_2">
     <g id="line2d_6">
      <path clip-path="url(#pc9a5121d26)" d="M 190.045 266.9868 
L 190.045 24.5628 
" style="fill:none;stroke:#e7e7e7;stroke-linecap:square;stroke-width:0.5;"/>
     </g>
     <g id="line2d_7">
      <g>
       <use style="stroke:#000000;stroke-width:0.6;" x="190.045" xlink:href="#me6ef3bb99b" y="266.9868"/>
      </g>
     </g>
     <g id="text_2">
      <text style="font-family:Arial;font-size:7px;font-style:normal;font-weight:normal;text-anchor:middle;" transform="rotate(-0, 190.045, 278.997269)" x="190.045" y="278.997269">0.70</text>
     </g>
    </g>
    <g id="xtick_3">
     <g id="line2d_8">
      <path clip-path="url(#pc9a5121d26)" d="M 280.495 266.9868 
L 280.495 24.5628 
" style="fill:none;stroke:#e7e7e7;stroke-linecap:square;stroke-width:0.5;"/>
     </g>
     <g id="line2d_9">
      <g>
       <use style="stroke:#000000;stroke-width:0.6;" x="280.495" xlink:href="#me6ef3bb99b" y="266.9868"/>
      </g>
     </g>
     <g id="text_3">
      <text style="font-family:Arial;font-size:7px;font-style:normal;font-weight:normal;text-anchor:middle;" transform="rotate(-0, 280.495, 278.997269)" x="280.495" y="278.997269">0.80</text>
     </g>
    </g>
    <g id="xtick_4">
     <g id="line2d_10">
      <path clip-path="url(#pc9a5121d26)" d="M 370.945 266.9868 
L 370.945 24.5628 
" style="fill:none;stroke:#e7e7e7;stroke-linecap:square;stroke-width:0.5;"/>
     </g>
     <g id="line2d_11">
      <g>
       <use style="stroke:#000000;stroke-width:0.6;" x="370.945" xlink:href="#me6ef3bb99b" y="266.9868"/>
      </g>
     </g>
     <g id="text_4">
      <text style="font-family:Arial;font-size:7px;font-style:normal;font-weight:normal;text-anchor:middle;" transform="rotate(-0, 370.945, 278.997269)" x="370.945" y="278.997269">0.90</text>
     </g>
    </g>
    <g id="text_5">
     <text style="font-family:Arial;font-size:7.3px;font-style:normal;font-weight:normal;text-anchor:middle;" transform="rotate(-0, 244.315, 290.702691)" x="244.315" y="290.702691">Secondary blind Top-10</text>
    </g>
   </g>
   <g id="matplotlib.axis_2">
    <g id="ytick_1">
     <g id="line2d_12"/>
     <g id="text_6">
      <text style="font-family:Arial;font-size:7px;font-style:normal;font-weight:normal;text-anchor:end;" transform="rotate(-0, 78.005, 44.011647)" x="78.005" y="44.011647">Attachment-Frequency</text>
     </g>
    </g>
    <g id="ytick_2">
     <g id="line2d_13"/>
     <g id="text_7">
      <text style="font-family:Arial;font-size:7px;font-style:normal;font-weight:normal;text-anchor:end;" transform="rotate(-0, 78.005, 70.078744)" x="78.005" y="70.078744">HGB</text>
     </g>
    </g>
    <g id="ytick_3">
     <g id="line2d_14"/>
     <g id="text_8">
      <text style="font-family:Arial;font-size:7px;font-style:normal;font-weight:normal;text-anchor:end;" transform="rotate(-0, 78.005, 96.145841)" x="78.005" y="96.145841">Dual Encoder</text>
     </g>
    </g>
    <g id="ytick_4">
     <g id="line2d_15"/>
     <g id="text_9">
      <text style="font-family:Arial;font-size:7px;font-style:normal;font-weight:normal;text-anchor:end;" transform="rotate(-0, 78.005, 122.255594)" x="78.005" y="122.255594">Borda(DE,HGB)</text>
     </g>
    </g>
    <g id="ytick_5">
     <g id="line2d_16"/>
     <g id="text_10">
      <text style="font-family:Arial;font-size:7px;font-style:normal;font-weight:normal;text-anchor:end;" transform="rotate(-0, 78.005, 148.280034)" x="78.005" y="148.280034">MLP</text>
     </g>
    </g>
    <g id="ytick_6">
     <g id="line2d_17"/>
     <g id="text_11">
      <text style="font-family:Arial;font-size:7px;font-style:normal;font-weight:normal;text-anchor:end;" transform="rotate(-0, 78.005, 174.347131)" x="78.005" y="174.347131">Score Blend</text>
     </g>
    </g>
    <g id="ytick_7">
     <g id="line2d_18"/>
     <g id="text_12">
      <text style="font-family:Arial;font-size:7px;font-style:normal;font-weight:normal;" transform="translate(24.706563 197.088107)">82-feature scorer</text>
      <text style="font-family:Arial;font-size:7px;font-style:normal;font-weight:normal;" transform="translate(42.210938 203.740349)">prospective</text>
     </g>
    </g>
    <g id="ytick_8">
     <g id="line2d_19"/>
     <g id="text_13">
      <text style="font-family:Arial;font-size:7px;font-style:normal;font-weight:normal;" transform="translate(24.706563 223.155204)">77-feature scorer</text>
      <text style="font-family:Arial;font-size:7px;font-style:normal;font-weight:normal;" transform="translate(47.26625 229.807446)">post-audit</text>
     </g>
    </g>
    <g id="ytick_9">
     <g id="line2d_20"/>
     <g id="text_14">
      <text style="font-family:Arial;font-size:7px;font-style:normal;font-weight:normal;" transform="translate(24.517344 249.140269)">Best-of-DE+HGB</text>
      <text style="font-family:Arial;font-size:7px;font-style:normal;font-weight:normal;" transform="translate(46.486406 255.792511)">diagnostic</text>
     </g>
    </g>
   </g>
   <g id="patch_3">
    <path d="M 81.505 266.9868 
L 407.125 266.9868 
" style="fill:none;stroke:#555555;stroke-linecap:square;stroke-linejoin:miter;stroke-width:0.6;"/>
   </g>
   <g id="LineCollection_1">
    <path clip-path="url(#pc9a5121d26)" d="M 93.53485 41.506413 
L 109.0018 41.506413 
" style="fill:none;stroke:#7a7a7a;stroke-width:0.88;"/>
   </g>
   <g id="LineCollection_2">
    <path clip-path="url(#pc9a5121d26)" d="M 222.2452 67.57351 
L 236.7172 67.57351 
" style="fill:none;stroke:#7a7a7a;stroke-width:0.88;"/>
   </g>
   <g id="LineCollection_3">
    <path clip-path="url(#pc9a5121d26)" d="M 279.2287 93.640606 
L 291.5299 93.640606 
" style="fill:none;stroke:#7a7a7a;stroke-width:0.88;"/>
   </g>
   <g id="LineCollection_4">
    <path clip-path="url(#pc9a5121d26)" d="M 309.52945 119.707703 
L 320.92615 119.707703 
" style="fill:none;stroke:#536f8a;stroke-width:0.88;"/>
   </g>
   <g id="LineCollection_5">
    <path clip-path="url(#pc9a5121d26)" d="M 311.15755 145.7748 
L 322.6447 145.7748 
" style="fill:none;stroke:#536f8a;stroke-width:0.88;"/>
   </g>
   <g id="LineCollection_6">
    <path clip-path="url(#pc9a5121d26)" d="M 325.26775 171.841897 
L 336.66445 171.841897 
" style="fill:none;stroke:#536f8a;stroke-width:0.88;"/>
   </g>
   <g id="LineCollection_7">
    <path clip-path="url(#pc9a5121d26)" d="M 352.4932 197.908994 
L 362.17135 197.908994 
" style="fill:none;stroke:#c9874b;stroke-width:0.88;"/>
   </g>
   <g id="LineCollection_8">
    <path clip-path="url(#pc9a5121d26)" d="M 388.94455 223.97609 
L 396.90415 223.97609 
" style="fill:none;stroke:#3a8782;stroke-width:0.88;"/>
   </g>
   <g id="line2d_21">
    <defs>
     <path d="M 0 2.1 
L 0 -2.1 
" id="ma8c5b9add3" style="stroke:#7a7a7a;stroke-width:0.35;"/>
    </defs>
    <g clip-path="url(#pc9a5121d26)">
     <use style="fill:#7a7a7a;stroke:#7a7a7a;stroke-width:0.35;" x="93.53485" xlink:href="#ma8c5b9add3" y="41.506413"/>
    </g>
   </g>
   <g id="line2d_22">
    <g clip-path="url(#pc9a5121d26)">
     <use style="fill:#7a7a7a;stroke:#7a7a7a;stroke-width:0.35;" x="109.0018" xlink:href="#ma8c5b9add3" y="41.506413"/>
    </g>
   </g>
   <g id="line2d_23">
    <g clip-path="url(#pc9a5121d26)">
     <use style="fill:#7a7a7a;stroke:#7a7a7a;stroke-width:0.35;" x="222.2452" xlink:href="#ma8c5b9add3" y="67.57351"/>
    </g>
   </g>
   <g id="line2d_24">
    <g clip-path="url(#pc9a5121d26)">
     <use style="fill:#7a7a7a;stroke:#7a7a7a;stroke-width:0.35;" x="236.7172" xlink:href="#ma8c5b9add3" y="67.57351"/>
    </g>
   </g>
   <g id="line2d_25">
    <g clip-path="url(#pc9a5121d26)">
     <use style="fill:#7a7a7a;stroke:#7a7a7a;stroke-width:0.35;" x="279.2287" xlink:href="#ma8c5b9add3" y="93.640606"/>
    </g>
   </g>
   <g id="line2d_26">
    <g clip-path="url(#pc9a5121d26)">
     <use style="fill:#7a7a7a;stroke:#7a7a7a;stroke-width:0.35;" x="291.5299" xlink:href="#ma8c5b9add3" y="93.640606"/>
    </g>
   </g>
   <g id="line2d_27">
    <defs>
     <path d="M 0 2.1 
L 0 -2.1 
" id="m0a5ff35aaa" style="stroke:#536f8a;stroke-width:0.35;"/>
    </defs>
    <g clip-path="url(#pc9a5121d26)">
     <use style="fill:#536f8a;stroke:#536f8a;stroke-width:0.35;" x="309.52945" xlink:href="#m0a5ff35aaa" y="119.707703"/>
    </g>
   </g>
   <g id="line2d_28">
    <g clip-path="url(#pc9a5121d26)">
     <use style="fill:#536f8a;stroke:#536f8a;stroke-width:0.35;" x="320.92615" xlink:href="#m0a5ff35aaa" y="119.707703"/>
    </g>
   </g>
   <g id="line2d_29">
    <g clip-path="url(#pc9a5121d26)">
     <use style="fill:#536f8a;stroke:#536f8a;stroke-width:0.35;" x="311.15755" xlink:href="#m0a5ff35aaa" y="145.7748"/>
    </g>
   </g>
   <g id="line2d_30">
    <g clip-path="url(#pc9a5121d26)">
     <use style="fill:#536f8a;stroke:#536f8a;stroke-width:0.35;" x="322.6447" xlink:href="#m0a5ff35aaa" y="145.7748"/>
    </g>
   </g>
   <g id="line2d_31">
    <g clip-path="url(#pc9a5121d26)">
     <use style="fill:#536f8a;stroke:#536f8a;stroke-width:0.35;" x="325.26775" xlink:href="#m0a5ff35aaa" y="171.841897"/>
    </g>
   </g>
   <g id="line2d_32">
    <g clip-path="url(#pc9a5121d26)">
     <use style="fill:#536f8a;stroke:#536f8a;stroke-width:0.35;" x="336.66445" xlink:href="#m0a5ff35aaa" y="171.841897"/>
    </g>
   </g>
   <g id="line2d_33">
    <defs>
     <path d="M 0 2.1 
L 0 -2.1 
" id="m60311adc95" style="stroke:#c9874b;stroke-width:0.35;"/>
    </defs>
    <g clip-path="url(#pc9a5121d26)">
     <use style="fill:#c9874b;stroke:#c9874b;stroke-width:0.35;" x="352.4932" xlink:href="#m60311adc95" y="197.908994"/>
    </g>
   </g>
   <g id="line2d_34">
    <g clip-path="url(#pc9a5121d26)">
     <use style="fill:#c9874b;stroke:#c9874b;stroke-width:0.35;" x="362.17135" xlink:href="#m60311adc95" y="197.908994"/>
    </g>
   </g>
   <g id="line2d_35">
    <defs>
     <path d="M 0 2.1 
L 0 -2.1 
" id="m93fc2ea2e2" style="stroke:#3a8782;stroke-width:0.35;"/>
    </defs>
    <g clip-path="url(#pc9a5121d26)">
     <use style="fill:#3a8782;stroke:#3a8782;stroke-width:0.35;" x="388.94455" xlink:href="#m93fc2ea2e2" y="223.97609"/>
    </g>
   </g>
   <g id="line2d_36">
    <g clip-path="url(#pc9a5121d26)">
     <use style="fill:#3a8782;stroke:#3a8782;stroke-width:0.35;" x="396.90415" xlink:href="#m93fc2ea2e2" y="223.97609"/>
    </g>
   </g>
   <g id="text_15">
    <text style="fill:#c9874b;font-family:Arial;font-size:7px;font-style:normal;font-weight:normal;text-anchor:start;" transform="rotate(-0, 365.60845, 199.718603)" x="365.60845" y="199.718603">0.8851</text>
   </g>
   <g id="text_16">
    <text style="fill:#3a8782;font-family:Arial;font-size:7px;font-style:normal;font-weight:normal;text-anchor:start;" transform="rotate(-0, 401.06485, 225.7857)" x="401.06485" y="225.7857">0.9243</text>
   </g>
   <g id="line2d_37">
    <defs>
     <path d="M 0 2.15 
C 0.570187 2.15 1.117097 1.923462 1.52028 1.52028 
C 1.923462 1.117097 2.15 0.570187 2.15 0 
C 2.15 -0.570187 1.923462 -1.117097 1.52028 -1.52028 
C 1.117097 -1.923462 0.570187 -2.15 0 -2.15 
C -0.570187 -2.15 -1.117097 -1.923462 -1.52028 -1.52028 
C -1.923462 -1.117097 -2.15 -0.570187 -2.15 0 
C -2.15 0.570187 -1.923462 1.117097 -1.52028 1.52028 
C -1.117097 1.923462 -0.570187 2.15 0 2.15 
z
" id="m8daaabeb5c" style="stroke:#ffffff;stroke-width:0.35;"/>
    </defs>
    <g clip-path="url(#pc9a5121d26)">
     <use style="fill:#7a7a7a;stroke:#ffffff;stroke-width:0.35;" x="101.31355" xlink:href="#m8daaabeb5c" y="41.506413"/>
    </g>
   </g>
   <g id="line2d_38">
    <g clip-path="url(#pc9a5121d26)">
     <use style="fill:#7a7a7a;stroke:#ffffff;stroke-width:0.35;" x="229.57165" xlink:href="#m8daaabeb5c" y="67.57351"/>
    </g>
   </g>
   <g id="line2d_39">
    <g clip-path="url(#pc9a5121d26)">
     <use style="fill:#7a7a7a;stroke:#ffffff;stroke-width:0.35;" x="285.46975" xlink:href="#m8daaabeb5c" y="93.640606"/>
    </g>
   </g>
   <g id="line2d_40">
    <defs>
     <path d="M 0 2.15 
C 0.570187 2.15 1.117097 1.923462 1.52028 1.52028 
C 1.923462 1.117097 2.15 0.570187 2.15 0 
C 2.15 -0.570187 1.923462 -1.117097 1.52028 -1.52028 
C 1.117097 -1.923462 0.570187 -2.15 0 -2.15 
C -0.570187 -2.15 -1.117097 -1.923462 -1.52028 -1.52028 
C -1.923462 -1.117097 -2.15 -0.570187 -2.15 0 
C -2.15 0.570187 -1.923462 1.117097 -1.52028 1.52028 
C -1.117097 1.923462 -0.570187 2.15 0 2.15 
z
" id="me202e7c9cf" style="stroke:#ffffff;stroke-width:0.35;"/>
    </defs>
    <g clip-path="url(#pc9a5121d26)">
     <use style="fill:#536f8a;stroke:#ffffff;stroke-width:0.35;" x="315.2278" xlink:href="#me202e7c9cf" y="119.707703"/>
    </g>
   </g>
   <g id="line2d_41">
    <g clip-path="url(#pc9a5121d26)">
     <use style="fill:#536f8a;stroke:#ffffff;stroke-width:0.35;" x="316.8559" xlink:href="#me202e7c9cf" y="145.7748"/>
    </g>
   </g>
   <g id="line2d_42">
    <g clip-path="url(#pc9a5121d26)">
     <use style="fill:#536f8a;stroke:#ffffff;stroke-width:0.35;" x="330.9661" xlink:href="#me202e7c9cf" y="171.841897"/>
    </g>
   </g>
   <g id="line2d_43">
    <defs>
     <path d="M 0 2.15 
C 0.570187 2.15 1.117097 1.923462 1.52028 1.52028 
C 1.923462 1.117097 2.15 0.570187 2.15 0 
C 2.15 -0.570187 1.923462 -1.117097 1.52028 -1.52028 
C 1.117097 -1.923462 0.570187 -2.15 0 -2.15 
C -0.570187 -2.15 -1.117097 -1.923462 -1.52028 -1.52028 
C -1.923462 -1.117097 -2.15 -0.570187 -2.15 0 
C -2.15 0.570187 -1.923462 1.117097 -1.52028 1.52028 
C -1.117097 1.923462 -0.570187 2.15 0 2.15 
z
" id="mcba5a0f51b" style="stroke:#ffffff;stroke-width:0.35;"/>
    </defs>
    <g clip-path="url(#pc9a5121d26)">
     <use style="fill:#c9874b;stroke:#ffffff;stroke-width:0.35;" x="357.46795" xlink:href="#mcba5a0f51b" y="197.908994"/>
    </g>
   </g>
   <g id="line2d_44">
    <defs>
     <path d="M 0 2.15 
C 0.570187 2.15 1.117097 1.923462 1.52028 1.52028 
C 1.923462 1.117097 2.15 0.570187 2.15 0 
C 2.15 -0.570187 1.923462 -1.117097 1.52028 -1.52028 
C 1.117097 -1.923462 0.570187 -2.15 0 -2.15 
C -0.570187 -2.15 -1.117097 -1.923462 -1.52028 -1.52028 
C -1.923462 -1.117097 -2.15 -0.570187 -2.15 0 
C -2.15 0.570187 -1.923462 1.117097 -1.52028 1.52028 
C -1.117097 1.923462 -0.570187 2.15 0 2.15 
z
" id="ma381a24790" style="stroke:#ffffff;stroke-width:0.35;"/>
    </defs>
    <g clip-path="url(#pc9a5121d26)">
     <use style="fill:#3a8782;stroke:#ffffff;stroke-width:0.35;" x="392.92435" xlink:href="#ma381a24790" y="223.97609"/>
    </g>
   </g>
   <g id="PathCollection_1">
    <defs>
     <path d="M 0 2.645751 
C 0.701661 2.645751 1.374679 2.366978 1.870829 1.870829 
C 2.366978 1.374679 2.645751 0.701661 2.645751 0 
C 2.645751 -0.701661 2.366978 -1.374679 1.870829 -1.870829 
C 1.374679 -2.366978 0.701661 -2.645751 0 -2.645751 
C -0.701661 -2.645751 -1.374679 -2.366978 -1.870829 -1.870829 
C -2.366978 -1.374679 -2.645751 -0.701661 -2.645751 0 
C -2.645751 0.701661 -2.366978 1.374679 -1.870829 1.870829 
C -1.374679 2.366978 -0.701661 2.645751 0 2.645751 
z
" id="mc598c9102b" style="stroke:#b8b8b8;stroke-width:0.95;"/>
    </defs>
    <g clip-path="url(#pc9a5121d26)">
     <use style="fill:#ffffff;stroke:#b8b8b8;stroke-width:0.95;" x="342.5437" xlink:href="#mc598c9102b" y="250.043187"/>
    </g>
   </g>
  </g>
  <g id="text_17">
   <text style="font-family:Arial;font-size:8.5px;font-style:normal;font-weight:bold;text-anchor:start;" transform="rotate(-0, 81.505, 13.387734)" x="81.505" y="13.387734">Secondary blind Top-10 performance</text>
  </g>
 </g>
 <defs>
  <clipPath id="pc9a5121d26">
   <rect height="242.424" width="325.62" x="81.505" y="24.5628"/>
  </clipPath>
 </defs>
</svg>
