<?xml version="1.0" encoding="utf-8" standalone="no"?>
<!DOCTYPE svg PUBLIC "-//W3C//DTD SVG 1.1//EN"
  "http://www.w3.org/Graphics/SVG/1.1/DTD/svg11.dtd">
<!-- Created with matplotlib (http://matplotlib.org/) -->
<svg height="243.188869pt" version="1.1" viewBox="0 0 490.667938 243.188869" width="490.667938pt" xmlns="http://www.w3.org/2000/svg" xmlns:xlink="http://www.w3.org/1999/xlink">
 <defs>
  <style type="text/css">
*{stroke-linecap:butt;stroke-linejoin:round;}
  </style>
 </defs>
 <g id="figure_1">
  <g id="patch_1">
   <path d="M 0 243.188869 
L 490.667938 243.188869 
L 490.667938 0 
L 0 0 
z
" style="fill:#ffffff;"/>
  </g>
  <g id="axes_1">
   <g id="patch_2">
    <path d="M 97.650938 210.8304 
L 281.389844 210.8304 
L 281.389844 34.2648 
L 97.650938 34.2648 
z
" style="fill:#ffffff;"/>
   </g>
   <g id="line2d_1">
    <path clip-path="url(#p2741334dcd)" d="M 97.650938 95.311417 
L 281.389844 95.311417 
" style="fill:none;stroke:#dddddd;stroke-linecap:square;stroke-width:0.55;"/>
   </g>
   <g id="line2d_2">
    <path clip-path="url(#p2741334dcd)" d="M 97.650938 151.66214 
L 281.389844 151.66214 
" style="fill:none;stroke:#dddddd;stroke-linecap:square;stroke-width:0.55;"/>
   </g>
   <g id="line2d_3">
    <path clip-path="url(#p2741334dcd)" d="M 97.650938 189.229289 
L 281.389844 189.229289 
" style="fill:none;stroke:#dddddd;stroke-linecap:square;stroke-width:0.55;"/>
   </g>
   <g id="matplotlib.axis_1">
    <g id="xtick_1">
     <g id="line2d_4">
      <path clip-path="url(#p2741334dcd)" d="M 107.858655 210.8304 
L 107.858655 34.2648 
" style="fill:none;stroke:#e8e8e8;stroke-linecap:square;stroke-width:0.48;"/>
     </g>
     <g id="line2d_5">
      <defs>
       <path d="M 0 0 
L 0 3.5 
" id="m50ecfa55ef" style="stroke:#000000;stroke-width:0.6;"/>
      </defs>
      <g>
       <use style="stroke:#000000;stroke-width:0.6;" x="107.858655" xlink:href="#m50ecfa55ef" y="210.8304"/>
      </g>
     </g>
     <g id="text_1">
      <text style="font-family:Arial;font-size:7px;font-style:normal;font-weight:normal;text-anchor:middle;" transform="rotate(-0, 107.858655, 222.840869)" x="107.858655" y="222.840869">0.60</text>
     </g>
    </g>
    <g id="xtick_2">
     <g id="line2d_6">
      <path clip-path="url(#p2741334dcd)" d="M 158.89724 210.8304 
L 158.89724 34.2648 
" style="fill:none;stroke:#e8e8e8;stroke-linecap:square;stroke-width:0.48;"/>
     </g>
     <g id="line2d_7">
      <g>
       <use style="stroke:#000000;stroke-width:0.6;" x="158.89724" xlink:href="#m50ecfa55ef" y="210.8304"/>
      </g>
     </g>
     <g id="text_2">
      <text style="font-family:Arial;font-size:7px;font-style:normal;font-weight:normal;text-anchor:middle;" transform="rotate(-0, 158.89724, 222.840869)" x="158.89724" y="222.840869">0.70</text>
     </g>
    </g>
    <g id="xtick_3">
     <g id="line2d_8">
      <path clip-path="url(#p2741334dcd)" d="M 209.935825 210.8304 
L 209.935825 34.2648 
" style="fill:none;stroke:#e8e8e8;stroke-linecap:square;stroke-width:0.48;"/>
     </g>
     <g id="line2d_9">
      <g>
       <use style="stroke:#000000;stroke-width:0.6;" x="209.935825" xlink:href="#m50ecfa55ef" y="210.8304"/>
      </g>
     </g>
     <g id="text_3">
      <text style="font-family:Arial;font-size:7px;font-style:normal;font-weight:normal;text-anchor:middle;" transform="rotate(-0, 209.935825, 222.840869)" x="209.935825" y="222.840869">0.80</text>
     </g>
    </g>
    <g id="xtick_4">
     <g id="line2d_10">
      <path clip-path="url(#p2741334dcd)" d="M 260.97441 210.8304 
L 260.97441 34.2648 
" style="fill:none;stroke:#e8e8e8;stroke-linecap:square;stroke-width:0.48;"/>
     </g>
     <g id="line2d_11">
      <g>
       <use style="stroke:#000000;stroke-width:0.6;" x="260.97441" xlink:href="#m50ecfa55ef" y="210.8304"/>
      </g>
     </g>
     <g id="text_4">
      <text style="font-family:Arial;font-size:7px;font-style:normal;font-weight:normal;text-anchor:middle;" transform="rotate(-0, 260.97441, 222.840869)" x="260.97441" y="222.840869">0.90</text>
     </g>
    </g>
    <g id="text_5">
     <text style="font-family:Arial;font-size:7.2px;font-style:normal;font-weight:normal;text-anchor:middle;" transform="rotate(-0, 189.520391, 234.473494)" x="189.520391" y="234.473494">Secondary blind Top-10</text>
    </g>
   </g>
   <g id="matplotlib.axis_2">
    <g id="ytick_1">
     <g id="line2d_12"/>
     <g id="text_6">
      <text style="font-family:Arial;font-size:7px;font-style:normal;font-weight:normal;text-anchor:end;" transform="rotate(-0, 94.150938, 50.857715)" x="94.150938" y="50.857715">Attachment-Frequency</text>
     </g>
    </g>
    <g id="ytick_2">
     <g id="line2d_13"/>
     <g id="text_7">
      <text style="font-family:Arial;font-size:7px;font-style:normal;font-weight:normal;text-anchor:end;" transform="rotate(-0, 94.150938, 69.64129)" x="94.150938" y="69.64129">HGB</text>
     </g>
    </g>
    <g id="ytick_3">
     <g id="line2d_14"/>
     <g id="text_8">
      <text style="font-family:Arial;font-size:7px;font-style:normal;font-weight:normal;text-anchor:end;" transform="rotate(-0, 94.150938, 88.46752)" x="94.150938" y="88.46752">Dual Encoder (DE)</text>
     </g>
    </g>
    <g id="ytick_4">
     <g id="line2d_15"/>
     <g id="text_9">
      <text style="font-family:Arial;font-size:7px;font-style:normal;font-weight:normal;text-anchor:end;" transform="rotate(-0, 94.150938, 107.251095)" x="94.150938" y="107.251095">Borda(DE,HGB)</text>
     </g>
    </g>
    <g id="ytick_5">
     <g id="line2d_16"/>
     <g id="text_10">
      <text style="font-family:Arial;font-size:7px;font-style:normal;font-weight:normal;text-anchor:end;" transform="rotate(-0, 94.150938, 126.034669)" x="94.150938" y="126.034669">MLP (rank-only)</text>
     </g>
    </g>
    <g id="ytick_6">
     <g id="line2d_17"/>
     <g id="text_11">
      <text style="font-family:Arial;font-size:7px;font-style:normal;font-weight:normal;text-anchor:end;" transform="rotate(-0, 94.150938, 144.818244)" x="94.150938" y="144.818244">Score Blend (MLP + HGB)</text>
     </g>
    </g>
    <g id="ytick_7">
     <g id="line2d_18"/>
     <g id="text_12">
      <text style="font-family:Arial;font-size:7px;font-style:normal;font-weight:normal;text-anchor:end;" transform="rotate(-0, 94.150938, 163.559162)" x="94.150938" y="163.559162">Initial 82-feature scorer</text>
     </g>
    </g>
    <g id="ytick_8">
     <g id="line2d_19"/>
     <g id="text_13">
      <text style="font-family:Arial;font-size:7px;font-style:normal;font-weight:normal;text-anchor:end;" transform="rotate(-0, 94.150938, 182.342737)" x="94.150938" y="182.342737">Post-audit 77-feature scorer</text>
     </g>
    </g>
    <g id="ytick_9">
     <g id="line2d_20"/>
     <g id="text_14">
      <text style="font-family:Arial;font-size:7px;font-style:normal;font-weight:normal;text-anchor:end;" transform="rotate(-0, 94.150938, 201.168967)" x="94.150938" y="201.168967">Best-of-DE+HGB diagnostic</text>
     </g>
    </g>
   </g>
   <g id="patch_3">
    <path d="M 97.650938 210.8304 
L 281.389844 210.8304 
" style="fill:none;stroke:#555555;stroke-linecap:square;stroke-linejoin:miter;stroke-width:0.6;"/>
   </g>
   <g id="LineCollection_1">
    <path clip-path="url(#p2741334dcd)" d="M 104.439069 48.352481 
L 113.166667 48.352481 
" style="fill:none;stroke:#7a7a7a;stroke-width:0.85;"/>
   </g>
   <g id="LineCollection_2">
    <path clip-path="url(#p2741334dcd)" d="M 177.066976 67.136055 
L 185.23315 67.136055 
" style="fill:none;stroke:#7a7a7a;stroke-width:0.85;"/>
   </g>
   <g id="LineCollection_3">
    <path clip-path="url(#p2741334dcd)" d="M 209.221285 85.91963 
L 216.162532 85.91963 
" style="fill:none;stroke:#7a7a7a;stroke-width:0.85;"/>
   </g>
   <g id="LineCollection_4">
    <path clip-path="url(#p2741334dcd)" d="M 226.319211 104.703204 
L 232.750073 104.703204 
" style="fill:none;stroke:#516f8e;stroke-width:0.85;"/>
   </g>
   <g id="LineCollection_5">
    <path clip-path="url(#p2741334dcd)" d="M 227.237905 123.486779 
L 233.719806 123.486779 
" style="fill:none;stroke:#516f8e;stroke-width:0.85;"/>
   </g>
   <g id="LineCollection_6">
    <path clip-path="url(#p2741334dcd)" d="M 235.199925 142.270353 
L 241.630786 142.270353 
" style="fill:none;stroke:#516f8e;stroke-width:0.85;"/>
   </g>
   <g id="LineCollection_7">
    <path clip-path="url(#p2741334dcd)" d="M 250.562539 161.053928 
L 256.023667 161.053928 
" style="fill:none;stroke:#c9874b;stroke-width:0.85;"/>
   </g>
   <g id="LineCollection_8">
    <path clip-path="url(#p2741334dcd)" d="M 271.131089 179.837502 
L 275.622484 179.837502 
" style="fill:none;stroke:#3a8782;stroke-width:0.85;"/>
   </g>
   <g id="line2d_21">
    <defs>
     <path d="M 0 2.1 
L 0 -2.1 
" id="m3fa0498c74" style="stroke:#7a7a7a;stroke-width:0.35;"/>
    </defs>
    <g clip-path="url(#p2741334dcd)">
     <use style="fill:#7a7a7a;stroke:#7a7a7a;stroke-width:0.35;" x="104.439069" xlink:href="#m3fa0498c74" y="48.352481"/>
    </g>
   </g>
   <g id="line2d_22">
    <g clip-path="url(#p2741334dcd)">
     <use style="fill:#7a7a7a;stroke:#7a7a7a;stroke-width:0.35;" x="113.166667" xlink:href="#m3fa0498c74" y="48.352481"/>
    </g>
   </g>
   <g id="line2d_23">
    <g clip-path="url(#p2741334dcd)">
     <use style="fill:#7a7a7a;stroke:#7a7a7a;stroke-width:0.35;" x="177.066976" xlink:href="#m3fa0498c74" y="67.136055"/>
    </g>
   </g>
   <g id="line2d_24">
    <g clip-path="url(#p2741334dcd)">
     <use style="fill:#7a7a7a;stroke:#7a7a7a;stroke-width:0.35;" x="185.23315" xlink:href="#m3fa0498c74" y="67.136055"/>
    </g>
   </g>
   <g id="line2d_25">
    <g clip-path="url(#p2741334dcd)">
     <use style="fill:#7a7a7a;stroke:#7a7a7a;stroke-width:0.35;" x="209.221285" xlink:href="#m3fa0498c74" y="85.91963"/>
    </g>
   </g>
   <g id="line2d_26">
    <g clip-path="url(#p2741334dcd)">
     <use style="fill:#7a7a7a;stroke:#7a7a7a;stroke-width:0.35;" x="216.162532" xlink:href="#m3fa0498c74" y="85.91963"/>
    </g>
   </g>
   <g id="line2d_27">
    <defs>
     <path d="M 0 2.1 
L 0 -2.1 
" id="m328f3f1fa6" style="stroke:#516f8e;stroke-width:0.35;"/>
    </defs>
    <g clip-path="url(#p2741334dcd)">
     <use style="fill:#516f8e;stroke:#516f8e;stroke-width:0.35;" x="226.319211" xlink:href="#m328f3f1fa6" y="104.703204"/>
    </g>
   </g>
   <g id="line2d_28">
    <g clip-path="url(#p2741334dcd)">
     <use style="fill:#516f8e;stroke:#516f8e;stroke-width:0.35;" x="232.750073" xlink:href="#m328f3f1fa6" y="104.703204"/>
    </g>
   </g>
   <g id="line2d_29">
    <g clip-path="url(#p2741334dcd)">
     <use style="fill:#516f8e;stroke:#516f8e;stroke-width:0.35;" x="227.237905" xlink:href="#m328f3f1fa6" y="123.486779"/>
    </g>
   </g>
   <g id="line2d_30">
    <g clip-path="url(#p2741334dcd)">
     <use style="fill:#516f8e;stroke:#516f8e;stroke-width:0.35;" x="233.719806" xlink:href="#m328f3f1fa6" y="123.486779"/>
    </g>
   </g>
   <g id="line2d_31">
    <g clip-path="url(#p2741334dcd)">
     <use style="fill:#516f8e;stroke:#516f8e;stroke-width:0.35;" x="235.199925" xlink:href="#m328f3f1fa6" y="142.270353"/>
    </g>
   </g>
   <g id="line2d_32">
    <g clip-path="url(#p2741334dcd)">
     <use style="fill:#516f8e;stroke:#516f8e;stroke-width:0.35;" x="241.630786" xlink:href="#m328f3f1fa6" y="142.270353"/>
    </g>
   </g>
   <g id="line2d_33">
    <defs>
     <path d="M 0 2.1 
L 0 -2.1 
" id="meec73fb2e5" style="stroke:#c9874b;stroke-width:0.35;"/>
    </defs>
    <g clip-path="url(#p2741334dcd)">
     <use style="fill:#c9874b;stroke:#c9874b;stroke-width:0.35;" x="250.562539" xlink:href="#meec73fb2e5" y="161.053928"/>
    </g>
   </g>
   <g id="line2d_34">
    <g clip-path="url(#p2741334dcd)">
     <use style="fill:#c9874b;stroke:#c9874b;stroke-width:0.35;" x="256.023667" xlink:href="#meec73fb2e5" y="161.053928"/>
    </g>
   </g>
   <g id="line2d_35">
    <defs>
     <path d="M 0 2.1 
L 0 -2.1 
" id="mbeae3e617f" style="stroke:#3a8782;stroke-width:0.35;"/>
    </defs>
    <g clip-path="url(#p2741334dcd)">
     <use style="fill:#3a8782;stroke:#3a8782;stroke-width:0.35;" x="271.131089" xlink:href="#mbeae3e617f" y="179.837502"/>
    </g>
   </g>
   <g id="line2d_36">
    <g clip-path="url(#p2741334dcd)">
     <use style="fill:#3a8782;stroke:#3a8782;stroke-width:0.35;" x="275.622484" xlink:href="#mbeae3e617f" y="179.837502"/>
    </g>
   </g>
   <g id="text_15">
    <text style="fill:#222222;font-family:Arial;font-size:7px;font-style:normal;font-weight:bold;text-anchor:start;" transform="rotate(-0, 97.650938, 39.272539)" x="97.650938" y="39.272539">Method</text>
   </g>
   <g id="line2d_37">
    <defs>
     <path d="M 0 2.1 
C 0.556927 2.1 1.091118 1.878731 1.484924 1.484924 
C 1.878731 1.091118 2.1 0.556927 2.1 0 
C 2.1 -0.556927 1.878731 -1.091118 1.484924 -1.484924 
C 1.091118 -1.878731 0.556927 -2.1 0 -2.1 
C -0.556927 -2.1 -1.091118 -1.878731 -1.484924 -1.484924 
C -1.878731 -1.091118 -2.1 -0.556927 -2.1 0 
C -2.1 0.556927 -1.878731 1.091118 -1.484924 1.484924 
C -1.091118 1.878731 -0.556927 2.1 0 2.1 
z
" id="ma0913c91c5" style="stroke:#ffffff;stroke-width:0.35;"/>
    </defs>
    <g clip-path="url(#p2741334dcd)">
     <use style="fill:#7a7a7a;stroke:#ffffff;stroke-width:0.35;" x="108.828388" xlink:href="#ma0913c91c5" y="48.352481"/>
    </g>
   </g>
   <g id="line2d_38">
    <g clip-path="url(#p2741334dcd)">
     <use style="fill:#7a7a7a;stroke:#ffffff;stroke-width:0.35;" x="181.201101" xlink:href="#ma0913c91c5" y="67.136055"/>
    </g>
   </g>
   <g id="line2d_39">
    <g clip-path="url(#p2741334dcd)">
     <use style="fill:#7a7a7a;stroke:#ffffff;stroke-width:0.35;" x="212.742947" xlink:href="#ma0913c91c5" y="85.91963"/>
    </g>
   </g>
   <g id="line2d_40">
    <defs>
     <path d="M 0 2.1 
C 0.556927 2.1 1.091118 1.878731 1.484924 1.484924 
C 1.878731 1.091118 2.1 0.556927 2.1 0 
C 2.1 -0.556927 1.878731 -1.091118 1.484924 -1.484924 
C 1.091118 -1.878731 0.556927 -2.1 0 -2.1 
C -0.556927 -2.1 -1.091118 -1.878731 -1.484924 -1.484924 
C -1.878731 -1.091118 -2.1 -0.556927 -2.1 0 
C -2.1 0.556927 -1.878731 1.091118 -1.484924 1.484924 
C -1.091118 1.878731 -0.556927 2.1 0 2.1 
z
" id="m33563eb626" style="stroke:#ffffff;stroke-width:0.35;"/>
    </defs>
    <g clip-path="url(#p2741334dcd)">
     <use style="fill:#516f8e;stroke:#ffffff;stroke-width:0.35;" x="229.534642" xlink:href="#m33563eb626" y="104.703204"/>
    </g>
   </g>
   <g id="line2d_41">
    <g clip-path="url(#p2741334dcd)">
     <use style="fill:#516f8e;stroke:#ffffff;stroke-width:0.35;" x="230.453336" xlink:href="#m33563eb626" y="123.486779"/>
    </g>
   </g>
   <g id="line2d_42">
    <g clip-path="url(#p2741334dcd)">
     <use style="fill:#516f8e;stroke:#ffffff;stroke-width:0.35;" x="238.415356" xlink:href="#m33563eb626" y="142.270353"/>
    </g>
   </g>
   <g id="line2d_43">
    <defs>
     <path d="M 0 2.1 
C 0.556927 2.1 1.091118 1.878731 1.484924 1.484924 
C 1.878731 1.091118 2.1 0.556927 2.1 0 
C 2.1 -0.556927 1.878731 -1.091118 1.484924 -1.484924 
C 1.091118 -1.878731 0.556927 -2.1 0 -2.1 
C -0.556927 -2.1 -1.091118 -1.878731 -1.484924 -1.484924 
C -1.878731 -1.091118 -2.1 -0.556927 -2.1 0 
C -2.1 0.556927 -1.878731 1.091118 -1.484924 1.484924 
C -1.091118 1.878731 -0.556927 2.1 0 2.1 
z
" id="md06e8e2000" style="stroke:#ffffff;stroke-width:0.35;"/>
    </defs>
    <g clip-path="url(#p2741334dcd)">
     <use style="fill:#c9874b;stroke:#ffffff;stroke-width:0.35;" x="253.369661" xlink:href="#md06e8e2000" y="161.053928"/>
    </g>
   </g>
   <g id="line2d_44">
    <defs>
     <path d="M 0 2.1 
C 0.556927 2.1 1.091118 1.878731 1.484924 1.484924 
C 1.878731 1.091118 2.1 0.556927 2.1 0 
C 2.1 -0.556927 1.878731 -1.091118 1.484924 -1.484924 
C 1.091118 -1.878731 0.556927 -2.1 0 -2.1 
C -0.556927 -2.1 -1.091118 -1.878731 -1.484924 -1.484924 
C -1.878731 -1.091118 -2.1 -0.556927 -2.1 0 
C -2.1 0.556927 -1.878731 1.091118 -1.484924 1.484924 
C -1.091118 1.878731 -0.556927 2.1 0 2.1 
z
" id="mbe05354dbe" style="stroke:#ffffff;stroke-width:0.35;"/>
    </defs>
    <g clip-path="url(#p2741334dcd)">
     <use style="fill:#3a8782;stroke:#ffffff;stroke-width:0.35;" x="273.376786" xlink:href="#mbe05354dbe" y="179.837502"/>
    </g>
   </g>
   <g id="PathCollection_1">
    <defs>
     <path d="M 0 2.645751 
C 0.701661 2.645751 1.374679 2.366978 1.870829 1.870829 
C 2.366978 1.374679 2.645751 0.701661 2.645751 0 
C 2.645751 -0.701661 2.366978 -1.374679 1.870829 -1.870829 
C 1.374679 -2.366978 0.701661 -2.645751 0 -2.645751 
C -0.701661 -2.645751 -1.374679 -2.366978 -1.870829 -1.870829 
C -2.366978 -1.374679 -2.645751 -0.701661 -2.645751 0 
C -2.645751 0.701661 -2.366978 1.374679 -1.870829 1.870829 
C -1.374679 2.366978 -0.701661 2.645751 0 2.645751 
z
" id="mcde0a6a870" style="stroke:#b8b8b8;stroke-width:0.95;"/>
    </defs>
    <g clip-path="url(#p2741334dcd)">
     <use style="fill:#ffffff;stroke:#b8b8b8;stroke-width:0.95;" x="244.948294" xlink:href="#mcde0a6a870" y="198.621077"/>
    </g>
   </g>
  </g>
  <g id="axes_2">
   <g id="line2d_45">
    <path clip-path="url(#padfcff6022)" d="M 288.126938 95.311417 
L 420.41895 95.311417 
" style="fill:none;stroke:#dddddd;stroke-linecap:square;stroke-width:0.55;"/>
   </g>
   <g id="line2d_46">
    <path clip-path="url(#padfcff6022)" d="M 288.126938 151.66214 
L 420.41895 151.66214 
" style="fill:none;stroke:#dddddd;stroke-linecap:square;stroke-width:0.55;"/>
   </g>
   <g id="line2d_47">
    <path clip-path="url(#padfcff6022)" d="M 288.126938 189.229289 
L 420.41895 189.229289 
" style="fill:none;stroke:#dddddd;stroke-linecap:square;stroke-width:0.55;"/>
   </g>
   <g id="text_16">
    <text style="fill:#555555;font-family:Arial;font-size:7px;font-style:normal;font-weight:normal;text-anchor:start;" transform="rotate(-0, 290.772778, 144.081603)" x="290.772778" y="144.081603">strongest pre-D4S baseline</text>
   </g>
   <g id="text_17">
    <text style="fill:#c9874b;font-family:Arial;font-size:7px;font-style:normal;font-weight:normal;text-anchor:start;" transform="rotate(-0, 290.772778, 162.863537)" x="290.772778" y="162.863537">prospective candidate-level result</text>
   </g>
   <g id="text_18">
    <text style="fill:#3a8782;font-family:Arial;font-size:7px;font-style:normal;font-weight:normal;text-anchor:start;" transform="rotate(-0, 290.772778, 181.647112)" x="290.772778" y="181.647112">post-audit locked result</text>
   </g>
   <g id="text_19">
    <text style="fill:#555555;font-family:Arial;font-size:7px;font-style:normal;font-weight:normal;text-anchor:start;" transform="rotate(-0, 290.772778, 200.38967)" x="290.772778" y="200.38967">diagnostic only</text>
   </g>
   <g id="text_20">
    <text style="fill:#222222;font-family:Arial;font-size:7px;font-style:normal;font-weight:bold;text-anchor:start;" transform="rotate(-0, 290.772778, 39.272539)" x="290.772778" y="39.272539">Evidence role</text>
   </g>
  </g>
  <g id="axes_3">
   <g id="line2d_48">
    <path clip-path="url(#p36162014f4)" d="M 427.156044 95.311417 
L 478.602938 95.311417 
" style="fill:none;stroke:#dddddd;stroke-linecap:square;stroke-width:0.55;"/>
   </g>
   <g id="line2d_49">
    <path clip-path="url(#p36162014f4)" d="M 427.156044 151.66214 
L 478.602938 151.66214 
" style="fill:none;stroke:#dddddd;stroke-linecap:square;stroke-width:0.55;"/>
   </g>
   <g id="line2d_50">
    <path clip-path="url(#p36162014f4)" d="M 427.156044 189.229289 
L 478.602938 189.229289 
" style="fill:none;stroke:#dddddd;stroke-linecap:square;stroke-width:0.55;"/>
   </g>
   <g id="text_21">
    <text style="fill:#666666;font-family:Arial;font-size:7px;font-style:normal;font-weight:normal;text-anchor:start;" transform="rotate(-0, 430.242857, 144.079963)" x="430.242857" y="144.079963">ref.</text>
   </g>
   <g id="text_22">
    <text style="fill:#c9874b;font-family:Arial;font-size:7px;font-style:normal;font-weight:normal;text-anchor:start;" transform="rotate(-0, 430.242857, 162.863537)" x="430.242857" y="162.863537">+0.0293</text>
   </g>
   <g id="text_23">
    <text style="fill:#3a8782;font-family:Arial;font-size:7px;font-style:normal;font-weight:normal;text-anchor:start;" transform="rotate(-0, 430.242857, 181.647112)" x="430.242857" y="181.647112">+0.0686</text>
   </g>
   <g id="text_24">
    <text style="fill:#b8b8b8;font-family:Arial;font-size:7px;font-style:normal;font-weight:normal;text-anchor:start;" transform="rotate(-0, 430.242857, 200.430686)" x="430.242857" y="200.430686">+0.0128</text>
   </g>
   <g id="text_25">
    <text style="fill:#222222;font-family:Arial;font-size:7px;font-style:normal;font-weight:bold;" transform="translate(430.242857 36.076601)">Delta vs</text>
    <text style="fill:#222222;font-family:Arial;font-size:7px;font-style:normal;font-weight:bold;" transform="translate(430.242857 42.468476)">Score Blend</text>
   </g>
  </g>
  <g id="text_26">
   <text style="font-family:Arial;font-size:8.3px;font-style:normal;font-weight:bold;text-anchor:start;" transform="rotate(-0, 97.650938, 13.242141)" x="97.650938" y="13.242141">Secondary blind Top-10 performance</text>
  </g>
 </g>
 <defs>
  <clipPath id="p2741334dcd">
   <rect height="176.5656" width="183.738907" x="97.650938" y="34.2648"/>
  </clipPath>
  <clipPath id="padfcff6022">
   <rect height="176.5656" width="132.292013" x="288.126938" y="34.2648"/>
  </clipPath>
  <clipPath id="p36162014f4">
   <rect height="176.5656" width="51.446894" x="427.156044" y="34.2648"/>
  </clipPath>
 </defs>
</svg>
