<?xml version="1.0" encoding="utf-8" standalone="no"?>
<!DOCTYPE svg PUBLIC "-//W3C//DTD SVG 1.1//EN"
  "http://www.w3.org/Graphics/SVG/1.1/DTD/svg11.dtd">
<!-- Created with matplotlib (http://matplotlib.org/) -->
<svg height="258.388312pt" version="1.1" viewBox="0 0 425.13364 258.388312" width="425.13364pt" xmlns="http://www.w3.org/2000/svg" xmlns:xlink="http://www.w3.org/1999/xlink">
 <defs>
  <style type="text/css">
*{stroke-linecap:butt;stroke-linejoin:round;}
  </style>
 </defs>
 <g id="figure_1">
  <g id="patch_1">
   <path d="M 0 258.388312 
L 425.13364 258.388312 
L 425.13364 0 
L 0 0 
z
" style="fill:#ffffff;"/>
  </g>
  <g id="axes_1">
   <g id="patch_2">
    <path d="M 83.95364 225.936 
L 414.43364 225.936 
L 414.43364 24.1344 
L 83.95364 24.1344 
z
" style="fill:#ffffff;"/>
   </g>
   <g id="line2d_1">
    <path clip-path="url(#p57a63a44e5)" d="M 83.95364 92.486555 
L 414.43364 92.486555 
" style="fill:none;stroke:#eeeeee;stroke-linecap:square;stroke-opacity:0.72;stroke-width:0.3;"/>
   </g>
   <g id="line2d_2">
    <path clip-path="url(#p57a63a44e5)" d="M 83.95364 157.583845 
L 414.43364 157.583845 
" style="fill:none;stroke:#eeeeee;stroke-linecap:square;stroke-opacity:0.72;stroke-width:0.3;"/>
   </g>
   <g id="line2d_3">
    <path clip-path="url(#p57a63a44e5)" d="M 83.95364 200.982039 
L 414.43364 200.982039 
" style="fill:none;stroke:#eeeeee;stroke-linecap:square;stroke-opacity:0.72;stroke-width:0.3;"/>
   </g>
   <g id="matplotlib.axis_1">
    <g id="xtick_1">
     <g id="line2d_4">
      <path clip-path="url(#p57a63a44e5)" d="M 102.31364 225.936 
L 102.31364 24.1344 
" style="fill:none;stroke:#e7e7e7;stroke-linecap:square;stroke-width:0.5;"/>
     </g>
     <g id="line2d_5">
      <defs>
       <path d="M 0 0 
L 0 3.5 
" id="m0fdeb81a36" style="stroke:#000000;stroke-width:0.6;"/>
      </defs>
      <g>
       <use style="stroke:#000000;stroke-width:0.6;" x="102.31364" xlink:href="#m0fdeb81a36" y="225.936"/>
      </g>
     </g>
     <g id="text_1">
      <text style="font-family:Arial;font-size:7px;font-style:normal;font-weight:normal;text-anchor:middle;" transform="rotate(-0, 102.31364, 237.946469)" x="102.31364" y="237.946469">0.60</text>
     </g>
    </g>
    <g id="xtick_2">
     <g id="line2d_6">
      <path clip-path="url(#p57a63a44e5)" d="M 194.11364 225.936 
L 194.11364 24.1344 
" style="fill:none;stroke:#e7e7e7;stroke-linecap:square;stroke-width:0.5;"/>
     </g>
     <g id="line2d_7">
      <g>
       <use style="stroke:#000000;stroke-width:0.6;" x="194.11364" xlink:href="#m0fdeb81a36" y="225.936"/>
      </g>
     </g>
     <g id="text_2">
      <text style="font-family:Arial;font-size:7px;font-style:normal;font-weight:normal;text-anchor:middle;" transform="rotate(-0, 194.11364, 237.946469)" x="194.11364" y="237.946469">0.70</text>
     </g>
    </g>
    <g id="xtick_3">
     <g id="line2d_8">
      <path clip-path="url(#p57a63a44e5)" d="M 285.91364 225.936 
L 285.91364 24.1344 
" style="fill:none;stroke:#e7e7e7;stroke-linecap:square;stroke-width:0.5;"/>
     </g>
     <g id="line2d_9">
      <g>
       <use style="stroke:#000000;stroke-width:0.6;" x="285.91364" xlink:href="#m0fdeb81a36" y="225.936"/>
      </g>
     </g>
     <g id="text_3">
      <text style="font-family:Arial;font-size:7px;font-style:normal;font-weight:normal;text-anchor:middle;" transform="rotate(-0, 285.91364, 237.946469)" x="285.91364" y="237.946469">0.80</text>
     </g>
    </g>
    <g id="xtick_4">
     <g id="line2d_10">
      <path clip-path="url(#p57a63a44e5)" d="M 377.71364 225.936 
L 377.71364 24.1344 
" style="fill:none;stroke:#e7e7e7;stroke-linecap:square;stroke-width:0.5;"/>
     </g>
     <g id="line2d_11">
      <g>
       <use style="stroke:#000000;stroke-width:0.6;" x="377.71364" xlink:href="#m0fdeb81a36" y="225.936"/>
      </g>
     </g>
     <g id="text_4">
      <text style="font-family:Arial;font-size:7px;font-style:normal;font-weight:normal;text-anchor:middle;" transform="rotate(-0, 377.71364, 237.946469)" x="377.71364" y="237.946469">0.90</text>
     </g>
    </g>
    <g id="text_5">
     <text style="font-family:Arial;font-size:7.3px;font-style:normal;font-weight:normal;text-anchor:middle;" transform="rotate(-0, 249.19364, 249.651891)" x="249.19364" y="249.651891">Secondary blind Top-10</text>
    </g>
   </g>
   <g id="matplotlib.axis_2">
    <g id="ytick_1">
     <g id="line2d_12"/>
    </g>
    <g id="ytick_2">
     <g id="line2d_13"/>
    </g>
    <g id="ytick_3">
     <g id="line2d_14"/>
    </g>
    <g id="ytick_4">
     <g id="line2d_15"/>
    </g>
    <g id="ytick_5">
     <g id="line2d_16"/>
    </g>
    <g id="ytick_6">
     <g id="line2d_17"/>
    </g>
    <g id="ytick_7">
     <g id="line2d_18"/>
    </g>
    <g id="ytick_8">
     <g id="line2d_19"/>
    </g>
    <g id="ytick_9">
     <g id="line2d_20"/>
    </g>
   </g>
   <g id="patch_3">
    <path d="M 83.95364 225.936 
L 414.43364 225.936 
" style="fill:none;stroke:#555555;stroke-linecap:square;stroke-linejoin:miter;stroke-width:0.6;"/>
   </g>
   <g id="LineCollection_1">
    <path clip-path="url(#p57a63a44e5)" d="M 96.16304 38.238813 
L 111.86084 38.238813 
" style="fill:none;stroke:#7a7a7a;stroke-width:0.78;"/>
   </g>
   <g id="LineCollection_2">
    <path clip-path="url(#p57a63a44e5)" d="M 226.79444 59.93791 
L 241.48244 59.93791 
" style="fill:none;stroke:#7a7a7a;stroke-width:0.78;"/>
   </g>
   <g id="LineCollection_3">
    <path clip-path="url(#p57a63a44e5)" d="M 284.62844 81.637006 
L 297.11324 81.637006 
" style="fill:none;stroke:#7a7a7a;stroke-width:0.78;"/>
   </g>
   <g id="LineCollection_4">
    <path clip-path="url(#p57a63a44e5)" d="M 315.38144 103.336103 
L 326.94824 103.336103 
" style="fill:none;stroke:#536f8a;stroke-width:0.78;"/>
   </g>
   <g id="LineCollection_5">
    <path clip-path="url(#p57a63a44e5)" d="M 317.03384 125.0352 
L 328.69244 125.0352 
" style="fill:none;stroke:#536f8a;stroke-width:0.78;"/>
   </g>
   <g id="LineCollection_6">
    <path clip-path="url(#p57a63a44e5)" d="M 331.35464 146.734297 
L 342.92144 146.734297 
" style="fill:none;stroke:#536f8a;stroke-width:0.78;"/>
   </g>
   <g id="LineCollection_7">
    <path clip-path="url(#p57a63a44e5)" d="M 358.98644 168.433394 
L 368.80904 168.433394 
" style="fill:none;stroke:#c9874b;stroke-width:0.78;"/>
   </g>
   <g id="LineCollection_8">
    <path clip-path="url(#p57a63a44e5)" d="M 395.98184 190.13249 
L 404.06024 190.13249 
" style="fill:none;stroke:#3a8782;stroke-width:0.78;"/>
   </g>
   <g id="line2d_21">
    <defs>
     <path d="M 0 1.95 
L 0 -1.95 
" id="m1abdde0f58" style="stroke:#7a7a7a;stroke-width:0.35;"/>
    </defs>
    <g clip-path="url(#p57a63a44e5)">
     <use style="fill:#7a7a7a;stroke:#7a7a7a;stroke-width:0.35;" x="96.16304" xlink:href="#m1abdde0f58" y="38.238813"/>
    </g>
   </g>
   <g id="line2d_22">
    <g clip-path="url(#p57a63a44e5)">
     <use style="fill:#7a7a7a;stroke:#7a7a7a;stroke-width:0.35;" x="111.86084" xlink:href="#m1abdde0f58" y="38.238813"/>
    </g>
   </g>
   <g id="line2d_23">
    <g clip-path="url(#p57a63a44e5)">
     <use style="fill:#7a7a7a;stroke:#7a7a7a;stroke-width:0.35;" x="226.79444" xlink:href="#m1abdde0f58" y="59.93791"/>
    </g>
   </g>
   <g id="line2d_24">
    <g clip-path="url(#p57a63a44e5)">
     <use style="fill:#7a7a7a;stroke:#7a7a7a;stroke-width:0.35;" x="241.48244" xlink:href="#m1abdde0f58" y="59.93791"/>
    </g>
   </g>
   <g id="line2d_25">
    <g clip-path="url(#p57a63a44e5)">
     <use style="fill:#7a7a7a;stroke:#7a7a7a;stroke-width:0.35;" x="284.62844" xlink:href="#m1abdde0f58" y="81.637006"/>
    </g>
   </g>
   <g id="line2d_26">
    <g clip-path="url(#p57a63a44e5)">
     <use style="fill:#7a7a7a;stroke:#7a7a7a;stroke-width:0.35;" x="297.11324" xlink:href="#m1abdde0f58" y="81.637006"/>
    </g>
   </g>
   <g id="line2d_27">
    <defs>
     <path d="M 0 1.95 
L 0 -1.95 
" id="mee1d0e26be" style="stroke:#536f8a;stroke-width:0.35;"/>
    </defs>
    <g clip-path="url(#p57a63a44e5)">
     <use style="fill:#536f8a;stroke:#536f8a;stroke-width:0.35;" x="315.38144" xlink:href="#mee1d0e26be" y="103.336103"/>
    </g>
   </g>
   <g id="line2d_28">
    <g clip-path="url(#p57a63a44e5)">
     <use style="fill:#536f8a;stroke:#536f8a;stroke-width:0.35;" x="326.94824" xlink:href="#mee1d0e26be" y="103.336103"/>
    </g>
   </g>
   <g id="line2d_29">
    <g clip-path="url(#p57a63a44e5)">
     <use style="fill:#536f8a;stroke:#536f8a;stroke-width:0.35;" x="317.03384" xlink:href="#mee1d0e26be" y="125.0352"/>
    </g>
   </g>
   <g id="line2d_30">
    <g clip-path="url(#p57a63a44e5)">
     <use style="fill:#536f8a;stroke:#536f8a;stroke-width:0.35;" x="328.69244" xlink:href="#mee1d0e26be" y="125.0352"/>
    </g>
   </g>
   <g id="line2d_31">
    <g clip-path="url(#p57a63a44e5)">
     <use style="fill:#536f8a;stroke:#536f8a;stroke-width:0.35;" x="331.35464" xlink:href="#mee1d0e26be" y="146.734297"/>
    </g>
   </g>
   <g id="line2d_32">
    <g clip-path="url(#p57a63a44e5)">
     <use style="fill:#536f8a;stroke:#536f8a;stroke-width:0.35;" x="342.92144" xlink:href="#mee1d0e26be" y="146.734297"/>
    </g>
   </g>
   <g id="line2d_33">
    <defs>
     <path d="M 0 1.95 
L 0 -1.95 
" id="m556e98556e" style="stroke:#c9874b;stroke-width:0.35;"/>
    </defs>
    <g clip-path="url(#p57a63a44e5)">
     <use style="fill:#c9874b;stroke:#c9874b;stroke-width:0.35;" x="358.98644" xlink:href="#m556e98556e" y="168.433394"/>
    </g>
   </g>
   <g id="line2d_34">
    <g clip-path="url(#p57a63a44e5)">
     <use style="fill:#c9874b;stroke:#c9874b;stroke-width:0.35;" x="368.80904" xlink:href="#m556e98556e" y="168.433394"/>
    </g>
   </g>
   <g id="line2d_35">
    <defs>
     <path d="M 0 1.95 
L 0 -1.95 
" id="mae9865ab72" style="stroke:#3a8782;stroke-width:0.35;"/>
    </defs>
    <g clip-path="url(#p57a63a44e5)">
     <use style="fill:#3a8782;stroke:#3a8782;stroke-width:0.35;" x="395.98184" xlink:href="#mae9865ab72" y="190.13249"/>
    </g>
   </g>
   <g id="line2d_36">
    <g clip-path="url(#p57a63a44e5)">
     <use style="fill:#3a8782;stroke:#3a8782;stroke-width:0.35;" x="404.06024" xlink:href="#mae9865ab72" y="190.13249"/>
    </g>
   </g>
   <g id="text_6">
    <text style="fill:#222222;font-family:Arial;font-size:7px;font-style:normal;font-weight:normal;text-anchor:end;" transform="rotate(-0, 78.005, 40.007407)" x="78.005" y="40.007407">Attachment-Frequency</text>
   </g>
   <g id="text_7">
    <text style="fill:#222222;font-family:Arial;font-size:7px;font-style:normal;font-weight:normal;text-anchor:end;" transform="rotate(-0, 78.005, 61.747519)" x="78.005" y="61.747519">HGB</text>
   </g>
   <g id="text_8">
    <text style="fill:#222222;font-family:Arial;font-size:7px;font-style:normal;font-weight:normal;text-anchor:end;" transform="rotate(-0, 78.005, 83.446616)" x="78.005" y="83.446616">Dual Encoder</text>
   </g>
   <g id="text_9">
    <text style="fill:#222222;font-family:Arial;font-size:7px;font-style:normal;font-weight:normal;text-anchor:end;" transform="rotate(-0, 78.005, 105.147353)" x="78.005" y="105.147353">Borda(DE,HGB)</text>
   </g>
   <g id="text_10">
    <text style="fill:#222222;font-family:Arial;font-size:7px;font-style:normal;font-weight:normal;text-anchor:end;" transform="rotate(-0, 78.005, 126.844809)" x="78.005" y="126.844809">MLP</text>
   </g>
   <g id="text_11">
    <text style="fill:#222222;font-family:Arial;font-size:7px;font-style:normal;font-weight:normal;text-anchor:end;" transform="rotate(-0, 78.005, 148.543906)" x="78.005" y="148.543906">Score Blend</text>
   </g>
   <g id="text_12">
    <text style="fill:#222222;font-family:Arial;font-size:7px;font-style:normal;font-weight:normal;text-anchor:end;" transform="rotate(-0, 78.005, 168.073093)" x="78.005" y="168.073093">82-feature scorer</text>
   </g>
   <g id="text_13">
    <text style="fill:#b9b9b9;font-family:Arial;font-size:5.6px;font-style:normal;font-weight:normal;text-anchor:end;" transform="rotate(-0, 78.005, 173.354249)" x="78.005" y="173.354249">(prospective)</text>
   </g>
   <g id="text_14">
    <text style="fill:#222222;font-family:Arial;font-size:7px;font-style:normal;font-weight:normal;text-anchor:end;" transform="rotate(-0, 78.005, 189.77219)" x="78.005" y="189.77219">77-feature scorer</text>
   </g>
   <g id="text_15">
    <text style="fill:#b9b9b9;font-family:Arial;font-size:5.6px;font-style:normal;font-weight:normal;text-anchor:end;" transform="rotate(-0, 78.005, 195.053346)" x="78.005" y="195.053346">(post-audit)</text>
   </g>
   <g id="text_16">
    <text style="fill:#222222;font-family:Arial;font-size:7px;font-style:normal;font-weight:normal;text-anchor:end;" transform="rotate(-0, 78.005, 211.471287)" x="78.005" y="211.471287">Best-of-DE+HGB</text>
   </g>
   <g id="text_17">
    <text style="fill:#b9b9b9;font-family:Arial;font-size:5.6px;font-style:normal;font-weight:normal;text-anchor:end;" transform="rotate(-0, 78.005, 216.752443)" x="78.005" y="216.752443">(diagnostic)</text>
   </g>
   <g id="line2d_37">
    <defs>
     <path d="M 0 2 
C 0.530406 2 1.03916 1.789267 1.414214 1.414214 
C 1.789267 1.03916 2 0.530406 2 0 
C 2 -0.530406 1.789267 -1.03916 1.414214 -1.414214 
C 1.03916 -1.789267 0.530406 -2 0 -2 
C -0.530406 -2 -1.03916 -1.789267 -1.414214 -1.414214 
C -1.789267 -1.03916 -2 -0.530406 -2 0 
C -2 0.530406 -1.789267 1.03916 -1.414214 1.414214 
C -1.03916 1.789267 -0.530406 2 0 2 
z
" id="m2865938129" style="stroke:#ffffff;stroke-width:0.35;"/>
    </defs>
    <g clip-path="url(#p57a63a44e5)">
     <use style="fill:#7a7a7a;stroke:#ffffff;stroke-width:0.35;" x="104.05784" xlink:href="#m2865938129" y="38.238813"/>
    </g>
   </g>
   <g id="line2d_38">
    <g clip-path="url(#p57a63a44e5)">
     <use style="fill:#7a7a7a;stroke:#ffffff;stroke-width:0.35;" x="234.23024" xlink:href="#m2865938129" y="59.93791"/>
    </g>
   </g>
   <g id="line2d_39">
    <g clip-path="url(#p57a63a44e5)">
     <use style="fill:#7a7a7a;stroke:#ffffff;stroke-width:0.35;" x="290.96264" xlink:href="#m2865938129" y="81.637006"/>
    </g>
   </g>
   <g id="line2d_40">
    <defs>
     <path d="M 0 2 
C 0.530406 2 1.03916 1.789267 1.414214 1.414214 
C 1.789267 1.03916 2 0.530406 2 0 
C 2 -0.530406 1.789267 -1.03916 1.414214 -1.414214 
C 1.03916 -1.789267 0.530406 -2 0 -2 
C -0.530406 -2 -1.03916 -1.789267 -1.414214 -1.414214 
C -1.789267 -1.03916 -2 -0.530406 -2 0 
C -2 0.530406 -1.789267 1.03916 -1.414214 1.414214 
C -1.03916 1.789267 -0.530406 2 0 2 
z
" id="me03c814051" style="stroke:#ffffff;stroke-width:0.35;"/>
    </defs>
    <g clip-path="url(#p57a63a44e5)">
     <use style="fill:#536f8a;stroke:#ffffff;stroke-width:0.35;" x="321.16484" xlink:href="#me03c814051" y="103.336103"/>
    </g>
   </g>
   <g id="line2d_41">
    <g clip-path="url(#p57a63a44e5)">
     <use style="fill:#536f8a;stroke:#ffffff;stroke-width:0.35;" x="322.81724" xlink:href="#me03c814051" y="125.0352"/>
    </g>
   </g>
   <g id="line2d_42">
    <g clip-path="url(#p57a63a44e5)">
     <use style="fill:#536f8a;stroke:#ffffff;stroke-width:0.35;" x="337.13804" xlink:href="#me03c814051" y="146.734297"/>
    </g>
   </g>
   <g id="line2d_43">
    <defs>
     <path d="M 0 2 
C 0.530406 2 1.03916 1.789267 1.414214 1.414214 
C 1.789267 1.03916 2 0.530406 2 0 
C 2 -0.530406 1.789267 -1.03916 1.414214 -1.414214 
C 1.03916 -1.789267 0.530406 -2 0 -2 
C -0.530406 -2 -1.03916 -1.789267 -1.414214 -1.414214 
C -1.789267 -1.03916 -2 -0.530406 -2 0 
C -2 0.530406 -1.789267 1.03916 -1.414214 1.414214 
C -1.03916 1.789267 -0.530406 2 0 2 
z
" id="m9915d5ba23" style="stroke:#ffffff;stroke-width:0.35;"/>
    </defs>
    <g clip-path="url(#p57a63a44e5)">
     <use style="fill:#c9874b;stroke:#ffffff;stroke-width:0.35;" x="364.03544" xlink:href="#m9915d5ba23" y="168.433394"/>
    </g>
   </g>
   <g id="line2d_44">
    <defs>
     <path d="M 0 2 
C 0.530406 2 1.03916 1.789267 1.414214 1.414214 
C 1.789267 1.03916 2 0.530406 2 0 
C 2 -0.530406 1.789267 -1.03916 1.414214 -1.414214 
C 1.03916 -1.789267 0.530406 -2 0 -2 
C -0.530406 -2 -1.03916 -1.789267 -1.414214 -1.414214 
C -1.789267 -1.03916 -2 -0.530406 -2 0 
C -2 0.530406 -1.789267 1.03916 -1.414214 1.414214 
C -1.03916 1.789267 -0.530406 2 0 2 
z
" id="mcd209c936b" style="stroke:#ffffff;stroke-width:0.35;"/>
    </defs>
    <g clip-path="url(#p57a63a44e5)">
     <use style="fill:#3a8782;stroke:#ffffff;stroke-width:0.35;" x="400.02104" xlink:href="#mcd209c936b" y="190.13249"/>
    </g>
   </g>
   <g id="PathCollection_1">
    <defs>
     <path d="M 0 2.44949 
C 0.649612 2.44949 1.272706 2.191396 1.732051 1.732051 
C 2.191396 1.272706 2.44949 0.649612 2.44949 0 
C 2.44949 -0.649612 2.191396 -1.272706 1.732051 -1.732051 
C 1.272706 -2.191396 0.649612 -2.44949 0 -2.44949 
C -0.649612 -2.44949 -1.272706 -2.191396 -1.732051 -1.732051 
C -2.191396 -1.272706 -2.44949 -0.649612 -2.44949 0 
C -2.44949 0.649612 -2.191396 1.272706 -1.732051 1.732051 
C -1.272706 2.191396 -0.649612 2.44949 0 2.44949 
z
" id="mbfdef8018a" style="stroke:#b8b8b8;stroke-width:0.85;"/>
    </defs>
    <g clip-path="url(#p57a63a44e5)">
     <use style="fill:#ffffff;stroke:#b8b8b8;stroke-width:0.85;" x="348.88844" xlink:href="#mbfdef8018a" y="211.831587"/>
    </g>
   </g>
  </g>
  <g id="text_18">
   <text style="font-family:Arial;font-size:5.9px;font-style:normal;font-weight:bold;text-anchor:start;" transform="rotate(-0, 83.95364, 11.495016)" x="83.95364" y="11.495016">Secondary blind Top-10 performance</text>
  </g>
 </g>
 <defs>
  <clipPath id="p57a63a44e5">
   <rect height="201.8016" width="330.48" x="83.95364" y="24.1344"/>
  </clipPath>
 </defs>
</svg>
